<svg width="321" height="228" viewBox="0 0 321 228" fill="none" xmlns="http://www.w3.org/2000/svg">
<mask id="path-1-outside-1_344_192" maskUnits="userSpaceOnUse" x="-3" y="-2" width="326" height="232" fill="black">
<rect fill="white" x="-3" y="-2" width="326" height="232"/>
<path d="M139.68 224L124 167.36H57.76L42.4 224H0.16L62.88 0.639996H121.12L184.16 224H139.68ZM92.32 41.92H89.76L65.12 133.12H116.96L92.32 41.92Z"/>
<path d="M296.675 224C286.648 224 278.862 221.547 273.315 216.64C267.982 211.52 264.782 204.48 263.715 195.52H262.115C259.128 205.76 253.262 213.76 244.515 219.52C235.768 225.067 224.995 227.84 212.195 227.84C195.555 227.84 182.328 223.467 172.515 214.72C162.702 205.973 157.795 193.813 157.795 178.24C157.795 144.96 182.222 128.32 231.075 128.32H260.195V117.44C260.195 106.987 257.635 99.0933 252.515 93.76C247.395 88.4267 239.075 85.76 227.555 85.76C217.102 85.76 208.675 87.7867 202.275 91.84C195.875 95.8933 190.435 101.12 185.955 107.52L162.595 87.68C167.715 78.5067 175.928 70.8267 187.235 64.64C198.755 58.24 213.582 55.04 231.715 55.04C253.475 55.04 270.435 60.16 282.595 70.4C294.968 80.4267 301.155 95.4667 301.155 115.52V193.28H320.675V224H296.675ZM225.955 199.68C235.768 199.68 243.875 197.44 250.275 192.96C256.888 188.267 260.195 181.973 260.195 174.08V152H232.035C209.635 152 198.435 159.04 198.435 173.12V179.52C198.435 186.133 200.888 191.147 205.795 194.56C210.702 197.973 217.422 199.68 225.955 199.68Z"/>
</mask>
<path d="M139.68 224L124 167.36H57.76L42.4 224H0.16L62.88 0.639996H121.12L184.16 224H139.68ZM92.32 41.92H89.76L65.12 133.12H116.96L92.32 41.92Z" fill="#D9D9D9"/>
<path d="M296.675 224C286.648 224 278.862 221.547 273.315 216.64C267.982 211.52 264.782 204.48 263.715 195.52H262.115C259.128 205.76 253.262 213.76 244.515 219.52C235.768 225.067 224.995 227.84 212.195 227.84C195.555 227.84 182.328 223.467 172.515 214.72C162.702 205.973 157.795 193.813 157.795 178.24C157.795 144.96 182.222 128.32 231.075 128.32H260.195V117.44C260.195 106.987 257.635 99.0933 252.515 93.76C247.395 88.4267 239.075 85.76 227.555 85.76C217.102 85.76 208.675 87.7867 202.275 91.84C195.875 95.8933 190.435 101.12 185.955 107.52L162.595 87.68C167.715 78.5067 175.928 70.8267 187.235 64.64C198.755 58.24 213.582 55.04 231.715 55.04C253.475 55.04 270.435 60.16 282.595 70.4C294.968 80.4267 301.155 95.4667 301.155 115.52V193.28H320.675V224H296.675ZM225.955 199.68C235.768 199.68 243.875 197.44 250.275 192.96C256.888 188.267 260.195 181.973 260.195 174.08V152H232.035C209.635 152 198.435 159.04 198.435 173.12V179.52C198.435 186.133 200.888 191.147 205.795 194.56C210.702 197.973 217.422 199.68 225.955 199.68Z" fill="#001C3D"/>
<path d="M139.68 224L137.753 224.534L138.158 226H139.68V224ZM124 167.36L125.928 166.826L125.522 165.36H124V167.36ZM57.76 167.36V165.36H56.2301L55.8297 166.837L57.76 167.36ZM42.4 224V226H43.9299L44.3303 224.523L42.4 224ZM0.16 224L-1.76553 223.459L-2.47896 226H0.16V224ZM62.88 0.639996V-1.36H61.3643L60.9545 0.0993042L62.88 0.639996ZM121.12 0.639996L123.045 0.0967484L122.634 -1.36H121.12V0.639996ZM184.16 224V226H186.803L186.085 223.457L184.16 224ZM92.32 41.92L94.2508 41.3984L93.8514 39.92H92.32V41.92ZM89.76 41.92V39.92H88.2286L87.8292 41.3984L89.76 41.92ZM65.12 133.12L63.1892 132.598L62.5079 135.12H65.12V133.12ZM116.96 133.12V135.12H119.572L118.891 132.598L116.96 133.12ZM141.608 223.466L125.928 166.826L122.073 167.894L137.753 224.534L141.608 223.466ZM124 165.36H57.76V169.36H124V165.36ZM55.8297 166.837L40.4697 223.477L44.3303 224.523L59.6903 167.883L55.8297 166.837ZM42.4 222H0.16V226H42.4V222ZM2.08553 224.541L64.8055 1.18069L60.9545 0.0993042L-1.76553 223.459L2.08553 224.541ZM62.88 2.64H121.12V-1.36H62.88V2.64ZM119.195 1.18324L182.235 224.543L186.085 223.457L123.045 0.0967484L119.195 1.18324ZM184.16 222H139.68V226H184.16V222ZM92.32 39.92H89.76V43.92H92.32V39.92ZM87.8292 41.3984L63.1892 132.598L67.0508 133.642L91.6908 42.4416L87.8292 41.3984ZM65.12 135.12H116.96V131.12H65.12V135.12ZM118.891 132.598L94.2508 41.3984L90.3892 42.4416L115.029 133.642L118.891 132.598ZM273.315 216.64L271.93 218.083L271.959 218.111L271.99 218.138L273.315 216.64ZM263.715 195.52L265.701 195.284L265.491 193.52H263.715V195.52ZM262.115 195.52V193.52H260.615L260.195 194.96L262.115 195.52ZM244.515 219.52L245.586 221.209L245.601 221.2L245.615 221.19L244.515 219.52ZM172.515 214.72L173.846 213.227L172.515 214.72ZM260.195 128.32V130.32H262.195V128.32H260.195ZM252.515 93.76L253.958 92.3749L252.515 93.76ZM185.955 107.52L184.66 109.044L186.334 110.466L187.593 108.667L185.955 107.52ZM162.595 87.68L160.849 86.7053L160.048 88.1404L161.3 89.2044L162.595 87.68ZM187.235 64.64L188.195 66.3946L188.206 66.3883L187.235 64.64ZM282.595 70.4L281.307 71.9298L281.321 71.942L281.336 71.9539L282.595 70.4ZM301.155 193.28H299.155V195.28H301.155V193.28ZM320.675 193.28H322.675V191.28H320.675V193.28ZM320.675 224V226H322.675V224H320.675ZM250.275 192.96L251.422 194.598L251.433 194.591L250.275 192.96ZM260.195 152H262.195V150H260.195V152ZM205.795 194.56L206.937 192.918L205.795 194.56ZM296.675 222C286.962 222 279.709 219.626 274.64 215.142L271.99 218.138C278.015 223.467 286.335 226 296.675 226V222ZM274.7 215.197C269.77 210.464 266.725 203.889 265.701 195.284L261.729 195.756C262.838 205.071 266.194 212.576 271.93 218.083L274.7 215.197ZM263.715 193.52H262.115V197.52H263.715V193.52ZM260.195 194.96C257.339 204.754 251.757 212.356 243.415 217.85L245.615 221.19C254.766 215.164 260.918 206.766 264.035 196.08L260.195 194.96ZM243.444 217.831C235.086 223.131 224.705 225.84 212.195 225.84V229.84C225.285 229.84 236.451 227.002 245.586 221.209L243.444 217.831ZM212.195 225.84C195.911 225.84 183.203 221.567 173.846 213.227L171.184 216.213C181.453 225.366 195.199 229.84 212.195 229.84V225.84ZM173.846 213.227C164.537 204.93 159.795 193.358 159.795 178.24H155.795C155.795 194.268 160.866 207.016 171.184 216.213L173.846 213.227ZM159.795 178.24C159.795 162.164 165.65 150.349 177.241 142.453C188.969 134.463 206.813 130.32 231.075 130.32V126.32C206.484 126.32 187.687 130.497 174.989 139.147C162.153 147.891 155.795 161.036 155.795 178.24H159.795ZM231.075 130.32H260.195V126.32H231.075V130.32ZM262.195 128.32V117.44H258.195V128.32H262.195ZM262.195 117.44C262.195 106.685 259.561 98.2112 253.958 92.3749L251.072 95.1451C255.709 99.9754 258.195 107.288 258.195 117.44H262.195ZM253.958 92.3749C248.295 86.4762 239.322 83.76 227.555 83.76V87.76C238.828 87.76 246.495 90.3772 251.072 95.1451L253.958 92.3749ZM227.555 83.76C216.861 83.76 208.025 85.8311 201.205 90.1504L203.345 93.5296C209.325 89.7422 217.342 87.76 227.555 87.76V83.76ZM201.205 90.1504C194.574 94.3497 188.943 99.7633 184.317 106.373L187.593 108.667C191.927 102.477 197.176 97.437 203.345 93.5296L201.205 90.1504ZM187.25 105.996L163.89 86.1556L161.3 89.2044L184.66 109.044L187.25 105.996ZM164.341 88.6547C169.24 79.8776 177.144 72.4415 188.195 66.3945L186.275 62.8855C174.713 69.2118 166.19 77.1357 160.849 86.7053L164.341 88.6547ZM188.206 66.3883C199.338 60.2039 213.8 57.04 231.715 57.04V53.04C213.364 53.04 198.172 56.2761 186.264 62.8917L188.206 66.3883ZM231.715 57.04C253.177 57.04 269.621 62.0891 281.307 71.9298L283.883 68.8702C271.249 58.2309 253.773 53.04 231.715 53.04V57.04ZM281.336 71.9539C293.122 81.505 299.155 95.8992 299.155 115.52H303.155C303.155 95.0341 296.814 79.3483 283.854 68.8461L281.336 71.9539ZM299.155 115.52V193.28H303.155V115.52H299.155ZM301.155 195.28H320.675V191.28H301.155V195.28ZM318.675 193.28V224H322.675V193.28H318.675ZM320.675 222H296.675V226H320.675V222ZM225.955 201.68C236.073 201.68 244.608 199.368 251.422 194.598L249.128 191.322C243.142 195.512 235.464 197.68 225.955 197.68V201.68ZM251.433 194.591C258.557 189.535 262.195 182.642 262.195 174.08H258.195C258.195 181.304 255.22 186.999 249.118 191.329L251.433 194.591ZM262.195 174.08V152H258.195V174.08H262.195ZM260.195 150H232.035V154H260.195V150ZM232.035 150C220.69 150 211.841 151.771 205.771 155.587C199.545 159.5 196.435 165.446 196.435 173.12H200.435C200.435 166.714 202.925 162.1 207.899 158.973C213.029 155.749 220.98 154 232.035 154V150ZM196.435 173.12V179.52H200.435V173.12H196.435ZM196.435 179.52C196.435 186.707 199.145 192.37 204.653 196.202L206.937 192.918C202.631 189.923 200.435 185.56 200.435 179.52H196.435ZM204.653 196.202C210.01 199.929 217.181 201.68 225.955 201.68V197.68C217.662 197.68 211.393 196.018 206.937 192.918L204.653 196.202Z" fill="black" mask="url(#path-1-outside-1_344_192)"/>
</svg>
