<svg width="94" height="91" viewBox="0 0 94 91" fill="none" xmlns="http://www.w3.org/2000/svg">
<mask id="path-1-outside-1_344_152" maskUnits="userSpaceOnUse" x="-2" y="-2" width="98" height="95" fill="black">
<rect fill="white" x="-2" y="-2" width="98" height="95"/>
<path d="M24.5703 90.04L14.3103 82.48L36.6303 51.88L0.810313 40L4.59031 28.12L40.4103 39.64V0.759997H53.7303V39.64L89.5503 28.12L93.3303 40L57.5103 51.88L79.8303 82.48L69.5703 90.04L47.0703 59.08L24.5703 90.04Z"/>
</mask>
<path d="M24.5703 90.04L14.3103 82.48L36.6303 51.88L0.810313 40L4.59031 28.12L40.4103 39.64V0.759997H53.7303V39.64L89.5503 28.12L93.3303 40L57.5103 51.88L79.8303 82.48L69.5703 90.04L47.0703 59.08L24.5703 90.04Z" fill="#FF4218"/>
<path d="M24.5703 90.04L23.3839 91.6501L25.0047 92.8443L26.1882 91.2158L24.5703 90.04ZM14.3103 82.48L12.6945 81.3014L11.5216 82.9094L13.1239 84.0901L14.3103 82.48ZM36.6303 51.88L38.2461 53.0586L39.8612 50.8444L37.2599 49.9817L36.6303 51.88ZM0.810313 40L-1.09554 39.3936L-1.6946 41.2764L0.18072 41.8983L0.810313 40ZM4.59031 28.12L5.20264 26.216L3.29276 25.6018L2.68446 27.5136L4.59031 28.12ZM40.4103 39.64L39.798 41.544L42.4103 42.3841V39.64H40.4103ZM40.4103 0.759998V-1.24H38.4103V0.759998H40.4103ZM53.7303 0.759998H55.7303V-1.24H53.7303V0.759998ZM53.7303 39.64H51.7303V42.3841L54.3426 41.544L53.7303 39.64ZM89.5503 28.12L91.4562 27.5136L90.8479 25.6018L88.938 26.216L89.5503 28.12ZM93.3303 40L93.9599 41.8983L95.8352 41.2764L95.2362 39.3936L93.3303 40ZM57.5103 51.88L56.8807 49.9817L54.2794 50.8444L55.8945 53.0586L57.5103 51.88ZM79.8303 82.48L81.0167 84.0901L82.6191 82.9094L81.4461 81.3014L79.8303 82.48ZM69.5703 90.04L67.9524 91.2158L69.136 92.8443L70.7567 91.6501L69.5703 90.04ZM47.0703 59.08L48.6882 57.9042L47.0703 55.678L45.4524 57.9042L47.0703 59.08ZM25.7567 88.4299L15.4967 80.8699L13.1239 84.0901L23.3839 91.6501L25.7567 88.4299ZM15.9261 83.6586L38.2461 53.0586L35.0145 50.7014L12.6945 81.3014L15.9261 83.6586ZM37.2599 49.9817L1.43991 38.1017L0.18072 41.8983L36.0007 53.7783L37.2599 49.9817ZM2.71616 40.6064L6.49616 28.7264L2.68446 27.5136L-1.09554 39.3936L2.71616 40.6064ZM3.97799 30.024L39.798 41.544L41.0226 37.736L5.20264 26.216L3.97799 30.024ZM42.4103 39.64V0.759998H38.4103V39.64H42.4103ZM40.4103 2.76H53.7303V-1.24H40.4103V2.76ZM51.7303 0.759998V39.64H55.7303V0.759998H51.7303ZM54.3426 41.544L90.1626 30.024L88.938 26.216L53.118 37.736L54.3426 41.544ZM87.6445 28.7264L91.4245 40.6064L95.2362 39.3936L91.4562 27.5136L87.6445 28.7264ZM92.7007 38.1017L56.8807 49.9817L58.1399 53.7783L93.9599 41.8983L92.7007 38.1017ZM55.8945 53.0586L78.2145 83.6586L81.4461 81.3014L59.1261 50.7014L55.8945 53.0586ZM78.6439 80.8699L68.3839 88.4299L70.7567 91.6501L81.0167 84.0901L78.6439 80.8699ZM71.1882 88.8642L48.6882 57.9042L45.4524 60.2558L67.9524 91.2158L71.1882 88.8642ZM45.4524 57.9042L22.9524 88.8642L26.1882 91.2158L48.6882 60.2558L45.4524 57.9042Z" fill="black" mask="url(#path-1-outside-1_344_152)"/>
</svg>
