<svg width="308" height="551" viewBox="0 0 308 551" fill="none" xmlns="http://www.w3.org/2000/svg">
<path d="M149.878 523.897C152.135 523.788 232.801 519.27 277.699 488.676" stroke="black" stroke-width="2"/>
<path d="M131.35 104.942C118.83 114.379 111.166 117.093 95.7329 114.887" stroke="black" stroke-width="2"/>
<path d="M120.903 85.8974C120.172 86.9849 118.076 90.0946 117.68 91.7196C117.186 93.7509 117.134 97.5518 119.097 97.3823C120.667 97.2467 122.57 100.577 123.325 102.26C124.247 102.381 126.581 102.714 128.543 103.075C130.996 103.526 131.662 104.854 130.402 110.507C129.143 116.16 128.955 120.756 134.043 119.714C139.13 118.672 175.705 97.8575 186.392 131.223C194.942 157.915 198.607 174.259 199.371 179.094L277.377 490.895" stroke="black" stroke-width="2"/>
<path d="M94.1697 92.605C95.2543 93.1856 99.0511 95.407 100.108 96.6265C101.428 98.1509 103.192 101.445 101.524 102.289C100.19 102.965 100.157 106.836 100.307 108.687C99.615 109.259 97.8745 110.73 96.448 112.037C94.6648 113.671 94.7263 115.168 98.3074 119.469C101.888 123.77 104.122 127.69 99.5273 129.352C94.9329 131.013 55.8685 131.319 62.3198 165.867C67.4809 193.506 71.9128 209.635 73.4836 214.245L151.489 526.046" stroke="black" stroke-width="2"/>
<path d="M150.784 525.644C204.162 526.127 232.804 520.405 278.121 490.846" stroke="black" stroke-width="2"/>
<path d="M120.31 102.345C121.542 107.267 118.517 112.41 113.512 113.807C108.508 115.204 103.473 112.313 102.241 107.39C101.01 102.467 104.035 97.3251 109.039 95.9278C114.044 94.5304 119.079 97.4221 120.31 102.345Z" stroke="black" stroke-width="2"/>
<path d="M158.47 12.9328C143.815 24.9004 105.764 63.2415 88.571 80.9161L92.9197 92.9542C118.508 86.5667 174.452 72.0061 193.523 64.8636C212.593 57.7212 155.447 69.4369 124.491 76.1875L120.439 72.0178L117.96 62.1081C117.783 61.4003 176.788 -2.02677 158.47 12.9328Z" stroke="black" stroke-width="2"/>
<path d="M95.5077 92.6096C74.1755 97.3039 29.3673 117.363 35.9356 172.477C43.7161 228.16 65.6971 308.807 75.4368 347.738L104.202 445.347L116.519 489.238L124.722 515.345L130.389 537.996C134.152 537.45 141.636 534.855 146.948 533.372C151.009 532.238 132.799 486.585 114.589 425.408C104.808 392.546 73.553 273.672 69.7614 259.585C65.0218 241.976 51.2242 174.266 50.3074 168.464C46.2964 143.079 61.1984 118.471 87.3592 108.137C108.288 99.8703 100.917 102.206 101.601 102.268" stroke="black" stroke-width="2"/>
<path d="M146.674 505.209C199.589 503.251 226.982 495.696 271.647 470.314" stroke="black" stroke-width="2"/>
<path d="M69.4816 195.887C120.608 187.059 147.599 178.068 193.741 157.211" stroke="black" stroke-width="2"/>
<path d="M90.4783 278.904C142.469 271.717 171.601 260.484 215.419 242.614" stroke="black" stroke-width="2"/>
<mask id="path-12-outside-1_344_79" maskUnits="userSpaceOnUse" x="109.318" y="311.187" width="92.2275" height="171.586" fill="black">
<rect fill="white" x="109.318" y="311.187" width="92.2275" height="171.586"/>
<path d="M114.965 326.921L124.972 323.965C127.777 323.137 130.095 323.191 131.928 324.128C133.788 325.057 135.03 326.701 135.653 329.06C136.088 330.706 136.028 332.143 135.472 333.372C134.936 334.565 133.977 335.602 132.595 336.483L132.661 336.73C134.547 336.646 136.111 337.012 137.354 337.828C138.624 338.635 139.517 340.013 140.031 341.96C140.669 344.374 140.414 346.519 139.266 348.396C138.146 350.264 136.224 351.601 133.501 352.405L122.555 355.638L114.965 326.921ZM130.48 348.64C131.951 348.206 132.961 347.641 133.511 346.946C134.062 346.252 134.163 345.246 133.815 343.929L133.499 342.736C133.152 341.42 132.572 340.615 131.761 340.323C130.95 340.03 129.809 340.101 128.338 340.535L125.234 341.452L127.376 349.557L130.48 348.64ZM126.475 336.65C127.918 336.224 128.905 335.681 129.435 335.022C129.958 334.335 130.053 333.361 129.719 332.099L129.393 330.865C129.06 329.603 128.505 328.835 127.728 328.562C126.951 328.289 125.841 328.365 124.398 328.792L122.07 329.479L124.147 337.338L126.475 336.65ZM150.19 347.476L144.145 349.261L136.555 320.543L147.583 317.286C148.972 316.876 150.269 316.729 151.474 316.846C152.672 316.936 153.743 317.27 154.689 317.848C155.661 318.419 156.487 319.21 157.165 320.222C157.844 321.234 158.368 322.439 158.738 323.838C159.274 325.868 159.299 327.738 158.811 329.449C158.324 331.16 157.339 332.486 155.856 333.427L164.485 343.253L157.787 345.232L150.192 335.987L147.374 336.82L150.19 347.476ZM149.625 331.009C151.068 330.583 151.989 330.015 152.389 329.306C152.816 328.588 152.863 327.599 152.529 326.337L152.203 325.103C151.869 323.841 151.344 323.02 150.628 322.641C149.938 322.253 148.872 322.272 147.428 322.699L143.916 323.736L146.112 332.047L149.625 331.009ZM130.851 386.529L123.261 357.811L141.477 352.431L142.815 357.491L130.725 361.062L132.465 367.645L144.146 364.195L145.484 369.255L133.802 372.706L135.64 379.659L147.73 376.088L149.067 381.148L130.851 386.529ZM166.981 375.857L163.357 369.475L155.556 371.78L155.627 379.211L149.419 381.044L149.548 350.047L158.207 347.489L173.516 373.926L166.981 375.857ZM155.454 354.733L155.128 354.83L155.221 366.512L161.102 364.775L155.454 354.733ZM144.821 390.24L151.073 413.897L144.947 415.706L138.694 392.049L130.485 394.474L129.148 389.414L151.693 382.754L153.03 387.815L144.821 390.24ZM170.06 395.337L162.872 397.46L166.047 409.474L159.879 411.295L152.29 382.578L158.457 380.756L161.534 392.399L168.723 390.276L165.645 378.633L171.813 376.811L179.402 405.529L173.235 407.35L170.06 395.337ZM152.515 447.344C151.236 447.722 150.048 447.836 148.951 447.687C147.848 447.51 146.858 447.152 145.982 446.613C145.125 446.038 144.389 445.309 143.774 444.426C143.18 443.507 142.733 442.486 142.436 441.361C141.98 439.633 141.989 438.004 142.465 436.474C142.942 434.943 143.846 433.479 145.179 432.08C143.981 431.103 143.024 430.203 142.308 429.379C141.618 428.548 141.136 427.611 140.86 426.569C140.592 425.554 140.533 424.551 140.682 423.561C140.851 422.535 141.206 421.603 141.748 420.763C142.309 419.887 143.019 419.13 143.878 418.492C144.756 417.819 145.768 417.313 146.911 416.975C147.919 416.678 148.898 416.551 149.849 416.595C150.793 416.612 151.653 416.757 152.43 417.031C153.234 417.296 153.937 417.68 154.539 418.182C155.162 418.648 155.669 419.179 156.061 419.773L152.493 423.266C151.961 422.477 151.317 421.928 150.56 421.619C149.796 421.283 149.006 421.236 148.189 421.477C147.372 421.718 146.77 422.162 146.383 422.809C146.024 423.447 145.949 424.164 146.159 424.959L146.214 425.165C146.315 425.549 146.467 425.903 146.671 426.228C146.866 426.525 147.159 426.852 147.547 427.211C147.928 427.542 148.399 427.935 148.959 428.39C149.54 428.81 150.266 429.335 151.137 429.965L154.248 432.239L157.013 434.705L157.258 434.633C157.216 434.142 157.15 433.615 157.06 433.05C156.962 432.458 156.851 431.87 156.726 431.286C156.621 430.666 156.496 430.082 156.351 429.534C156.226 428.95 156.101 428.424 155.978 427.958L163.248 425.811L164.444 430.336L161.585 431.181C161.681 432.099 161.716 433.064 161.69 434.077C161.657 435.063 161.55 436.1 161.368 437.189L168.395 442.121L161.942 444.027L157.62 441.001L157.334 441.086C157.513 442.541 157.177 443.823 156.325 444.932C155.474 446.041 154.204 446.845 152.515 447.344ZM152.798 442.248C153.424 442.063 153.981 441.781 154.467 441.4C154.947 440.993 155.293 440.417 155.508 439.674L148.456 434.483C147.929 435.377 147.651 436.214 147.622 436.991C147.585 437.741 147.672 438.514 147.882 439.309L147.904 439.392C148.252 440.708 148.857 441.609 149.719 442.093C150.601 442.542 151.627 442.594 152.798 442.248ZM179.783 424.963L177.99 416.844L177.622 416.952L176.216 433.291L167.003 420.089L166.635 420.197L169.082 428.124L172.464 440.919L167.154 442.487L159.565 413.77L166.794 411.634L172.862 420.265L173.188 420.169L174.146 409.463L180.885 407.472L188.474 436.19L183.165 437.758L179.783 424.963ZM155.371 479.309L147.782 450.591L165.998 445.211L167.335 450.271L155.246 453.842L156.985 460.425L168.666 456.975L170.004 462.035L158.323 465.486L160.16 472.439L172.25 468.868L173.587 473.928L155.371 479.309Z"/>
</mask>
<path d="M114.965 326.921L124.972 323.965C127.777 323.137 130.095 323.191 131.928 324.128C133.788 325.057 135.03 326.701 135.653 329.06C136.088 330.706 136.028 332.143 135.472 333.372C134.936 334.565 133.977 335.602 132.595 336.483L132.661 336.73C134.547 336.646 136.111 337.012 137.354 337.828C138.624 338.635 139.517 340.013 140.031 341.96C140.669 344.374 140.414 346.519 139.266 348.396C138.146 350.264 136.224 351.601 133.501 352.405L122.555 355.638L114.965 326.921ZM130.48 348.64C131.951 348.206 132.961 347.641 133.511 346.946C134.062 346.252 134.163 345.246 133.815 343.929L133.499 342.736C133.152 341.42 132.572 340.615 131.761 340.323C130.95 340.03 129.809 340.101 128.338 340.535L125.234 341.452L127.376 349.557L130.48 348.64ZM126.475 336.65C127.918 336.224 128.905 335.681 129.435 335.022C129.958 334.335 130.053 333.361 129.719 332.099L129.393 330.865C129.06 329.603 128.505 328.835 127.728 328.562C126.951 328.289 125.841 328.365 124.398 328.792L122.07 329.479L124.147 337.338L126.475 336.65ZM150.19 347.476L144.145 349.261L136.555 320.543L147.583 317.286C148.972 316.876 150.269 316.729 151.474 316.846C152.672 316.936 153.743 317.27 154.689 317.848C155.661 318.419 156.487 319.21 157.165 320.222C157.844 321.234 158.368 322.439 158.738 323.838C159.274 325.868 159.299 327.738 158.811 329.449C158.324 331.16 157.339 332.486 155.856 333.427L164.485 343.253L157.787 345.232L150.192 335.987L147.374 336.82L150.19 347.476ZM149.625 331.009C151.068 330.583 151.989 330.015 152.389 329.306C152.816 328.588 152.863 327.599 152.529 326.337L152.203 325.103C151.869 323.841 151.344 323.02 150.628 322.641C149.938 322.253 148.872 322.272 147.428 322.699L143.916 323.736L146.112 332.047L149.625 331.009ZM130.851 386.529L123.261 357.811L141.477 352.431L142.815 357.491L130.725 361.062L132.465 367.645L144.146 364.195L145.484 369.255L133.802 372.706L135.64 379.659L147.73 376.088L149.067 381.148L130.851 386.529ZM166.981 375.857L163.357 369.475L155.556 371.78L155.627 379.211L149.419 381.044L149.548 350.047L158.207 347.489L173.516 373.926L166.981 375.857ZM155.454 354.733L155.128 354.83L155.221 366.512L161.102 364.775L155.454 354.733ZM144.821 390.24L151.073 413.897L144.947 415.706L138.694 392.049L130.485 394.474L129.148 389.414L151.693 382.754L153.03 387.815L144.821 390.24ZM170.06 395.337L162.872 397.46L166.047 409.474L159.879 411.295L152.29 382.578L158.457 380.756L161.534 392.399L168.723 390.276L165.645 378.633L171.813 376.811L179.402 405.529L173.235 407.35L170.06 395.337ZM152.515 447.344C151.236 447.722 150.048 447.836 148.951 447.687C147.848 447.51 146.858 447.152 145.982 446.613C145.125 446.038 144.389 445.309 143.774 444.426C143.18 443.507 142.733 442.486 142.436 441.361C141.98 439.633 141.989 438.004 142.465 436.474C142.942 434.943 143.846 433.479 145.179 432.08C143.981 431.103 143.024 430.203 142.308 429.379C141.618 428.548 141.136 427.611 140.86 426.569C140.592 425.554 140.533 424.551 140.682 423.561C140.851 422.535 141.206 421.603 141.748 420.763C142.309 419.887 143.019 419.13 143.878 418.492C144.756 417.819 145.768 417.313 146.911 416.975C147.919 416.678 148.898 416.551 149.849 416.595C150.793 416.612 151.653 416.757 152.43 417.031C153.234 417.296 153.937 417.68 154.539 418.182C155.162 418.648 155.669 419.179 156.061 419.773L152.493 423.266C151.961 422.477 151.317 421.928 150.56 421.619C149.796 421.283 149.006 421.236 148.189 421.477C147.372 421.718 146.77 422.162 146.383 422.809C146.024 423.447 145.949 424.164 146.159 424.959L146.214 425.165C146.315 425.549 146.467 425.903 146.671 426.228C146.866 426.525 147.159 426.852 147.547 427.211C147.928 427.542 148.399 427.935 148.959 428.39C149.54 428.81 150.266 429.335 151.137 429.965L154.248 432.239L157.013 434.705L157.258 434.633C157.216 434.142 157.15 433.615 157.06 433.05C156.962 432.458 156.851 431.87 156.726 431.286C156.621 430.666 156.496 430.082 156.351 429.534C156.226 428.95 156.101 428.424 155.978 427.958L163.248 425.811L164.444 430.336L161.585 431.181C161.681 432.099 161.716 433.064 161.69 434.077C161.657 435.063 161.55 436.1 161.368 437.189L168.395 442.121L161.942 444.027L157.62 441.001L157.334 441.086C157.513 442.541 157.177 443.823 156.325 444.932C155.474 446.041 154.204 446.845 152.515 447.344ZM152.798 442.248C153.424 442.063 153.981 441.781 154.467 441.4C154.947 440.993 155.293 440.417 155.508 439.674L148.456 434.483C147.929 435.377 147.651 436.214 147.622 436.991C147.585 437.741 147.672 438.514 147.882 439.309L147.904 439.392C148.252 440.708 148.857 441.609 149.719 442.093C150.601 442.542 151.627 442.594 152.798 442.248ZM179.783 424.963L177.99 416.844L177.622 416.952L176.216 433.291L167.003 420.089L166.635 420.197L169.082 428.124L172.464 440.919L167.154 442.487L159.565 413.77L166.794 411.634L172.862 420.265L173.188 420.169L174.146 409.463L180.885 407.472L188.474 436.19L183.165 437.758L179.783 424.963ZM155.371 479.309L147.782 450.591L165.998 445.211L167.335 450.271L155.246 453.842L156.985 460.425L168.666 456.975L170.004 462.035L158.323 465.486L160.16 472.439L172.25 468.868L173.587 473.928L155.371 479.309Z" fill="white"/>
<path d="M114.965 326.921L114.455 324.988L112.536 325.555L113.047 327.488L114.965 326.921ZM131.928 324.128L130.999 325.931L131.007 325.936L131.015 325.94L131.928 324.128ZM135.472 333.372L133.671 332.57L133.668 332.575L135.472 333.372ZM132.595 336.483L131.569 334.786L130.293 335.599L130.677 337.05L132.595 336.483ZM132.661 336.73L130.742 337.297L131.142 338.812L132.698 338.742L132.661 336.73ZM137.354 337.828L136.246 339.527L136.258 339.535L136.269 339.542L137.354 337.828ZM139.266 348.396L137.586 347.365L137.581 347.373L137.577 347.381L139.266 348.396ZM122.555 355.638L120.636 356.205L121.147 358.138L123.066 357.571L122.555 355.638ZM133.511 346.946L135.047 348.184L133.511 346.946ZM131.761 340.323L132.467 338.423L131.761 340.323ZM125.234 341.452L124.724 339.519L122.805 340.086L123.315 342.019L125.234 341.452ZM127.376 349.557L125.458 350.124L125.968 352.057L127.887 351.49L127.376 349.557ZM129.435 335.022L130.961 336.271L130.978 336.25L130.995 336.228L129.435 335.022ZM127.728 328.562L128.42 326.657L128.42 326.657L127.728 328.562ZM122.07 329.479L121.559 327.546L119.641 328.113L120.151 330.046L122.07 329.479ZM124.147 337.338L122.228 337.904L122.739 339.837L124.658 339.271L124.147 337.338ZM115.476 328.854L125.483 325.898L124.461 322.032L114.455 324.988L115.476 328.854ZM125.483 325.898C127.998 325.155 129.759 325.297 130.999 325.931L132.857 322.325C130.432 321.085 127.555 321.118 124.461 322.032L125.483 325.898ZM131.015 325.94C132.299 326.581 133.23 327.718 133.734 329.627L137.572 328.493C136.83 325.684 135.277 323.534 132.841 322.317L131.015 325.94ZM133.734 329.627C134.084 330.95 133.981 331.882 133.671 332.57L137.273 334.174C138.074 332.403 138.092 330.462 137.572 328.493L133.734 329.627ZM133.668 332.575C133.337 333.312 132.699 334.065 131.569 334.786L133.622 338.181C135.255 337.139 136.534 335.818 137.275 334.168L133.668 332.575ZM130.677 337.05L130.742 337.297L134.58 336.163L134.514 335.916L130.677 337.05ZM132.698 338.742C134.283 338.672 135.42 338.985 136.246 339.527L138.462 336.128C136.802 335.039 134.81 334.62 132.623 334.718L132.698 338.742ZM136.269 339.542C137.012 340.014 137.683 340.901 138.112 342.527L141.95 341.393C141.35 339.124 140.236 337.256 138.438 336.113L136.269 339.542ZM138.112 342.527C138.632 344.493 138.394 346.044 137.586 347.365L140.946 349.427C142.434 346.994 142.706 344.255 141.95 341.393L138.112 342.527ZM137.577 347.381C136.799 348.677 135.385 349.765 132.99 350.472L134.012 354.338C137.063 353.437 139.492 351.852 140.956 349.411L137.577 347.381ZM132.99 350.472L122.044 353.706L123.066 357.571L134.012 354.338L132.99 350.472ZM124.474 355.072L116.884 326.354L113.047 327.488L120.636 356.205L124.474 355.072ZM130.991 350.573C132.596 350.099 134.099 349.381 135.047 348.184L131.976 345.709C131.823 345.902 131.306 346.312 129.97 346.707L130.991 350.573ZM135.047 348.184C136.189 346.742 136.152 344.944 135.734 343.363L131.896 344.496C132.029 344.999 132.044 345.327 132.025 345.516C132.016 345.606 132 345.656 131.991 345.679C131.984 345.699 131.978 345.706 131.976 345.709L135.047 348.184ZM135.734 343.363L135.418 342.17L131.581 343.303L131.896 344.496L135.734 343.363ZM135.418 342.17C135 340.588 134.151 339.03 132.467 338.423L131.054 342.222C131.058 342.224 131.066 342.227 131.082 342.24C131.101 342.254 131.139 342.288 131.19 342.36C131.3 342.512 131.448 342.8 131.581 343.303L135.418 342.17ZM132.467 338.423C131.07 337.919 129.432 338.128 127.828 338.602L128.849 342.468C130.186 342.073 130.829 342.141 131.054 342.222L132.467 338.423ZM127.828 338.602L124.724 339.519L125.745 343.385L128.849 342.468L127.828 338.602ZM123.315 342.019L125.458 350.124L129.295 348.99L127.153 340.885L123.315 342.019ZM127.887 351.49L130.991 350.573L129.97 346.707L126.866 347.624L127.887 351.49ZM126.986 338.583C128.548 338.121 130.03 337.43 130.961 336.271L127.909 333.772C127.78 333.932 127.288 334.326 125.964 334.717L126.986 338.583ZM130.995 336.228C132.076 334.808 132.044 333.069 131.638 331.532L127.801 332.666C127.926 333.14 127.94 333.449 127.922 333.628C127.914 333.713 127.9 333.761 127.891 333.783C127.884 333.804 127.878 333.811 127.875 333.815L130.995 336.228ZM131.638 331.532L131.312 330.298L127.474 331.431L127.801 332.666L131.638 331.532ZM131.312 330.298C130.909 328.773 130.082 327.242 128.42 326.657L127.036 330.467C127.003 330.456 127.034 330.447 127.116 330.561C127.211 330.692 127.349 330.956 127.474 331.431L131.312 330.298ZM128.42 326.657C127.056 326.177 125.449 326.397 123.887 326.859L124.909 330.725C126.233 330.334 126.847 330.401 127.036 330.467L128.42 326.657ZM123.887 326.859L121.559 327.546L122.581 331.412L124.909 330.725L123.887 326.859ZM120.151 330.046L122.228 337.904L126.066 336.771L123.989 328.913L120.151 330.046ZM124.658 339.271L126.986 338.583L125.964 334.717L123.636 335.405L124.658 339.271ZM150.19 347.476L150.701 349.408L152.62 348.842L152.109 346.909L150.19 347.476ZM144.145 349.261L142.226 349.828L142.737 351.761L144.656 351.194L144.145 349.261ZM136.556 320.543L136.045 318.611L134.126 319.177L134.637 321.11L136.556 320.543ZM151.474 316.846L151.236 318.852L151.257 318.854L151.278 318.855L151.474 316.846ZM154.689 317.848L153.633 319.58L153.648 319.59L153.663 319.599L154.689 317.848ZM158.811 329.449L156.905 328.935L158.811 329.449ZM155.856 333.427L154.834 331.727L152.802 333.015L154.359 334.788L155.856 333.427ZM164.485 343.253L164.996 345.186L168.076 344.276L165.982 341.892L164.485 343.253ZM157.787 345.232L156.248 346.544L157.059 347.53L158.298 347.164L157.787 345.232ZM150.192 335.987L151.73 334.675L150.92 333.688L149.681 334.054L150.192 335.987ZM147.374 336.82L146.863 334.887L144.944 335.453L145.455 337.386L147.374 336.82ZM152.389 329.306L150.696 328.297L150.683 328.318L150.671 328.34L152.389 329.306ZM150.628 322.641L149.632 324.408L149.653 324.42L149.674 324.431L150.628 322.641ZM143.916 323.736L143.405 321.803L141.486 322.37L141.997 324.303L143.916 323.736ZM146.112 332.047L144.194 332.614L144.704 334.547L146.623 333.98L146.112 332.047ZM149.679 345.543L143.634 347.328L144.656 351.194L150.701 349.408L149.679 345.543ZM146.064 348.694L138.474 319.977L134.637 321.11L142.226 349.828L146.064 348.694ZM137.066 322.476L148.094 319.219L147.072 315.353L136.045 318.611L137.066 322.476ZM148.094 319.219C149.283 318.868 150.323 318.763 151.236 318.852L151.712 314.841C150.215 314.696 148.661 314.884 147.072 315.353L148.094 319.219ZM151.278 318.855C152.195 318.924 152.967 319.174 153.633 319.58L155.745 316.116C154.519 315.367 153.149 314.948 151.669 314.838L151.278 318.855ZM153.663 319.599C154.368 320.012 154.986 320.594 155.515 321.383L158.816 319.061C157.988 317.825 156.955 316.825 155.714 316.098L153.663 319.599ZM155.515 321.383C156.052 322.185 156.495 323.182 156.819 324.405L160.656 323.271C160.24 321.697 159.635 320.282 158.816 319.061L155.515 321.383ZM156.819 324.405C157.28 326.151 157.273 327.643 156.905 328.935L160.718 329.963C161.324 327.833 161.268 325.584 160.656 323.271L156.819 324.405ZM156.905 328.935C156.556 330.16 155.884 331.06 154.834 331.727L156.878 335.127C158.794 333.912 160.093 332.16 160.718 329.963L156.905 328.935ZM154.359 334.788L162.988 344.614L165.982 341.892L157.353 332.066L154.359 334.788ZM163.974 341.32L157.276 343.299L158.298 347.164L164.996 345.186L163.974 341.32ZM159.325 343.919L151.73 334.675L148.653 337.299L156.248 346.544L159.325 343.919ZM149.681 334.054L146.863 334.887L147.885 338.752L150.703 337.92L149.681 334.054ZM145.455 337.386L148.271 348.042L152.109 346.909L149.293 336.253L145.455 337.386ZM150.136 332.942C151.689 332.483 153.291 331.721 154.107 330.272L150.671 328.34C150.693 328.301 150.658 328.389 150.399 328.549C150.139 328.71 149.727 328.895 149.114 329.077L150.136 332.942ZM154.082 330.315C154.922 328.903 154.841 327.259 154.448 325.77L150.61 326.904C150.884 327.938 150.71 328.274 150.696 328.297L154.082 330.315ZM154.448 325.77L154.122 324.536L150.284 325.67L150.61 326.904L154.448 325.77ZM154.122 324.536C153.728 323.047 152.991 321.597 151.581 320.85L149.674 324.431C149.698 324.444 150.011 324.635 150.284 325.67L154.122 324.536ZM151.623 320.873C150.215 320.081 148.471 320.307 146.918 320.766L147.939 324.632C148.552 324.45 148.995 324.384 149.296 324.378C149.597 324.373 149.67 324.43 149.632 324.408L151.623 320.873ZM146.918 320.766L143.405 321.803L144.427 325.669L147.939 324.632L146.918 320.766ZM141.997 324.303L144.194 332.614L148.031 331.48L145.835 323.169L141.997 324.303ZM146.623 333.98L150.136 332.942L149.114 329.077L145.602 330.114L146.623 333.98ZM130.851 386.529L128.932 387.096L129.443 389.029L131.362 388.462L130.851 386.529ZM123.261 357.811L122.751 355.878L120.832 356.445L121.342 358.378L123.261 357.811ZM141.477 352.431L143.396 351.864L142.885 349.931L140.967 350.498L141.477 352.431ZM142.815 357.491L143.326 359.424L145.245 358.857L144.734 356.924L142.815 357.491ZM130.725 361.062L130.214 359.129L128.296 359.696L128.806 361.629L130.725 361.062ZM132.465 367.645L130.546 368.212L131.057 370.145L132.976 369.578L132.465 367.645ZM144.146 364.195L146.065 363.628L145.554 361.695L143.635 362.262L144.146 364.195ZM145.484 369.255L145.994 371.188L147.913 370.621L147.402 368.688L145.484 369.255ZM133.802 372.706L133.292 370.773L131.373 371.339L131.884 373.272L133.802 372.706ZM135.64 379.659L133.721 380.226L134.232 382.158L136.151 381.592L135.64 379.659ZM147.73 376.088L149.648 375.521L149.138 373.588L147.219 374.155L147.73 376.088ZM149.067 381.148L149.578 383.081L151.497 382.514L150.986 380.581L149.067 381.148ZM132.77 385.962L125.18 357.245L121.342 358.378L128.932 387.096L132.77 385.962ZM123.772 359.744L141.988 354.364L140.967 350.498L122.751 355.878L123.772 359.744ZM139.559 352.997L140.896 358.058L144.734 356.924L143.396 351.864L139.559 352.997ZM142.304 355.558L130.214 359.129L131.236 362.995L143.326 359.424L142.304 355.558ZM128.806 361.629L130.546 368.212L134.384 367.078L132.644 360.495L128.806 361.629ZM132.976 369.578L144.657 366.128L143.635 362.262L131.954 365.712L132.976 369.578ZM142.227 364.761L143.565 369.822L147.402 368.688L146.065 363.628L142.227 364.761ZM144.973 367.322L133.292 370.773L134.313 374.639L145.994 371.188L144.973 367.322ZM131.884 373.272L133.721 380.226L137.559 379.092L135.721 372.139L131.884 373.272ZM136.151 381.592L148.24 378.021L147.219 374.155L135.129 377.726L136.151 381.592ZM145.811 376.654L147.148 381.715L150.986 380.581L149.648 375.521L145.811 376.654ZM148.556 379.215L130.34 384.596L131.362 388.462L149.578 383.081L148.556 379.215ZM166.981 375.857L165.254 376.895L166.011 378.227L167.492 377.79L166.981 375.857ZM163.357 369.475L165.084 368.437L164.328 367.105L162.847 367.543L163.357 369.475ZM155.556 371.78L155.046 369.847L153.556 370.287L153.571 371.85L155.556 371.78ZM155.627 379.211L156.138 381.143L157.627 380.703L157.612 379.141L155.627 379.211ZM149.419 381.044L147.433 381.086L147.422 383.718L149.93 382.977L149.419 381.044ZM149.548 350.047L149.038 348.114L147.569 348.547L147.563 350.088L149.548 350.047ZM158.207 347.489L159.926 346.437L159.165 345.122L157.696 345.556L158.207 347.489ZM173.516 373.926L174.027 375.859L176.535 375.119L175.235 372.874L173.516 373.926ZM155.454 354.733L157.185 353.702L156.431 352.361L154.944 352.8L155.454 354.733ZM155.128 354.83L154.617 352.897L153.13 353.336L153.142 354.897L155.128 354.83ZM155.221 366.512L153.235 366.579L153.256 369.176L155.732 368.445L155.221 366.512ZM161.102 364.775L161.613 366.708L164.089 365.976L162.833 363.744L161.102 364.775ZM168.708 374.819L165.084 368.437L161.631 370.513L165.254 376.895L168.708 374.819ZM162.847 367.543L155.046 369.847L156.067 373.713L163.868 371.408L162.847 367.543ZM153.571 371.85L153.641 379.28L157.612 379.141L157.542 371.71L153.571 371.85ZM155.116 377.278L148.908 379.111L149.93 382.977L156.138 381.143L155.116 377.278ZM151.404 381.002L151.534 350.005L147.563 350.088L147.433 381.086L151.404 381.002ZM150.059 351.979L158.718 349.422L157.696 345.556L149.038 348.114L150.059 351.979ZM156.489 348.541L171.798 374.979L175.235 372.874L159.926 346.437L156.489 348.541ZM173.005 371.993L166.47 373.924L167.492 377.79L174.027 375.859L173.005 371.993ZM154.944 352.8L154.617 352.897L155.639 356.763L155.965 356.666L154.944 352.8ZM153.142 354.897L153.235 366.579L157.207 366.445L157.113 354.763L153.142 354.897ZM155.732 368.445L161.613 366.708L160.592 362.842L154.71 364.579L155.732 368.445ZM162.833 363.744L157.185 353.702L153.724 355.764L159.372 365.806L162.833 363.744ZM144.821 390.24L144.31 388.307L142.391 388.873L142.902 390.806L144.821 390.24ZM151.073 413.897L151.584 415.83L153.503 415.263L152.992 413.33L151.073 413.897ZM144.947 415.706L143.028 416.273L143.539 418.206L145.457 417.639L144.947 415.706ZM138.694 392.049L140.613 391.482L140.102 389.549L138.184 390.116L138.694 392.049ZM130.485 394.474L128.566 395.041L129.077 396.974L130.996 396.407L130.485 394.474ZM129.148 389.414L128.637 387.481L126.718 388.047L127.229 389.98L129.148 389.414ZM151.693 382.754L153.612 382.187L153.101 380.254L151.182 380.821L151.693 382.754ZM153.03 387.815L153.541 389.748L155.46 389.181L154.949 387.248L153.03 387.815ZM142.902 390.806L149.154 414.463L152.992 413.33L146.74 389.673L142.902 390.806ZM150.562 411.964L144.436 413.773L145.457 417.639L151.584 415.83L150.562 411.964ZM146.866 415.139L140.613 391.482L136.776 392.616L143.028 416.273L146.866 415.139ZM138.184 390.116L129.974 392.541L130.996 396.407L139.205 393.982L138.184 390.116ZM132.404 393.907L131.066 388.847L127.229 389.98L128.566 395.041L132.404 393.907ZM129.658 391.347L152.204 384.687L151.182 380.821L128.637 387.481L129.658 391.347ZM149.774 383.321L151.112 388.381L154.949 387.248L153.612 382.187L149.774 383.321ZM152.52 385.882L144.31 388.307L145.332 392.172L153.541 389.748L152.52 385.882ZM170.06 395.337L171.979 394.77L171.468 392.837L169.549 393.404L170.06 395.337ZM162.872 397.46L162.361 395.527L160.442 396.094L160.953 398.027L162.872 397.46ZM166.047 409.474L166.557 411.407L168.476 410.84L167.966 408.907L166.047 409.474ZM159.879 411.295L157.96 411.862L158.471 413.795L160.39 413.228L159.879 411.295ZM152.29 382.578L151.779 380.645L149.86 381.212L150.371 383.145L152.29 382.578ZM158.457 380.756L160.376 380.189L159.865 378.256L157.946 378.823L158.457 380.756ZM161.534 392.399L159.615 392.966L160.126 394.899L162.045 394.332L161.534 392.399ZM168.723 390.276L169.233 392.209L171.152 391.642L170.641 389.709L168.723 390.276ZM165.645 378.633L165.135 376.7L163.216 377.267L163.727 379.2L165.645 378.633ZM171.813 376.811L173.732 376.244L173.221 374.311L171.302 374.878L171.813 376.811ZM179.402 405.529L179.913 407.461L181.832 406.895L181.321 404.962L179.402 405.529ZM173.235 407.35L171.316 407.917L171.827 409.85L173.746 409.283L173.235 407.35ZM169.549 393.404L162.361 395.527L163.382 399.393L170.571 397.27L169.549 393.404ZM160.953 398.027L164.128 410.04L167.966 408.907L164.79 396.893L160.953 398.027ZM165.536 407.541L159.368 409.362L160.39 413.228L166.557 411.407L165.536 407.541ZM161.798 410.729L154.209 382.011L150.371 383.145L157.96 411.862L161.798 410.729ZM152.801 384.511L158.968 382.689L157.946 378.823L151.779 380.645L152.801 384.511ZM156.538 381.323L159.615 392.966L163.453 391.833L160.376 380.189L156.538 381.323ZM162.045 394.332L169.233 392.209L168.212 388.343L161.023 390.467L162.045 394.332ZM170.641 389.709L167.564 378.066L163.727 379.2L166.804 390.843L170.641 389.709ZM166.156 380.566L172.324 378.744L171.302 374.878L165.135 376.7L166.156 380.566ZM169.894 377.378L177.484 406.095L181.321 404.962L173.732 376.244L169.894 377.378ZM178.892 403.596L172.724 405.417L173.746 409.283L179.913 407.461L178.892 403.596ZM175.154 406.784L171.979 394.77L168.141 395.903L171.316 407.917L175.154 406.784ZM148.951 447.687L148.594 449.677L148.616 449.68L148.639 449.683L148.951 447.687ZM145.982 446.613L144.857 448.301L144.888 448.322L144.921 448.342L145.982 446.613ZM143.774 444.426L142.107 445.561L142.125 445.589L142.143 445.615L143.774 444.426ZM142.465 436.474L144.358 437.036L142.465 436.474ZM145.179 432.08L146.59 433.46L148.116 431.859L146.447 430.497L145.179 432.08ZM142.308 429.379L140.775 430.698L140.79 430.716L140.805 430.734L142.308 429.379ZM140.682 423.561L138.724 423.277L138.721 423.292L138.719 423.306L140.682 423.561ZM141.748 420.763L143.402 421.835L143.404 421.831L141.748 420.763ZM143.878 418.492L145.025 420.107L145.037 420.098L145.049 420.088L143.878 418.492ZM149.849 416.595L149.708 418.608L149.736 418.609L149.764 418.609L149.849 416.595ZM152.43 417.031L151.738 418.936L151.755 418.942L151.773 418.948L152.43 417.031ZM154.539 418.182L153.256 419.751L153.294 419.782L153.333 419.812L154.539 418.182ZM156.061 419.773L157.421 421.205L158.637 420.014L157.719 418.624L156.061 419.773ZM152.493 423.266L150.844 424.43L152.148 426.367L153.853 424.698L152.493 423.266ZM150.56 421.619L149.732 423.47L149.756 423.481L149.78 423.491L150.56 421.619ZM146.383 422.809L144.693 421.795L144.679 421.819L144.665 421.843L146.383 422.809ZM146.671 426.228L144.987 427.338L144.999 427.357L145.012 427.377L146.671 426.228ZM147.547 427.211L146.19 428.716L146.212 428.736L146.234 428.755L147.547 427.211ZM148.959 428.39L147.695 429.975L147.737 430.009L147.78 430.04L148.959 428.39ZM151.137 429.965L152.324 428.321L152.316 428.315L151.137 429.965ZM154.248 432.24L155.58 430.712L155.51 430.65L155.435 430.595L154.248 432.24ZM157.013 434.705L155.681 436.232L156.481 436.946L157.524 436.638L157.013 434.705ZM157.258 434.633L157.769 436.565L159.379 436.09L159.236 434.41L157.258 434.633ZM157.06 433.05L159.02 432.678L159.018 432.669L157.06 433.05ZM156.726 431.286L154.768 431.675L154.776 431.718L154.785 431.76L156.726 431.286ZM156.351 429.534L154.41 430.008L154.42 430.054L154.432 430.1L156.351 429.534ZM155.978 427.958L155.467 426.025L153.549 426.592L154.059 428.525L155.978 427.958ZM163.248 425.811L165.167 425.244L164.656 423.311L162.738 423.878L163.248 425.811ZM164.444 430.336L164.955 432.269L166.874 431.703L166.363 429.77L164.444 430.336ZM161.585 431.181L161.075 429.248L159.432 429.733L159.611 431.443L161.585 431.181ZM161.69 434.077L163.675 434.095L163.675 434.087L163.675 434.079L161.69 434.077ZM161.368 437.189L159.41 436.901L159.202 438.147L160.211 438.854L161.368 437.189ZM168.395 442.121L168.906 444.054L172.97 442.853L169.553 440.455L168.395 442.121ZM161.942 444.027L160.787 445.694L161.548 446.227L162.453 445.96L161.942 444.027ZM157.62 441.001L158.775 439.334L158.014 438.801L157.109 439.068L157.62 441.001ZM157.334 441.086L156.823 439.153L155.15 439.647L155.364 441.384L157.334 441.086ZM156.325 444.932L157.88 446.145L157.88 446.145L156.325 444.932ZM154.467 441.4L155.654 442.985L155.688 442.958L155.72 442.93L154.467 441.4ZM155.508 439.674L157.413 440.194L157.802 438.844L156.7 438.033L155.508 439.674ZM148.456 434.483L149.648 432.842L147.894 431.551L146.758 433.482L148.456 434.483ZM147.622 436.991L149.605 437.04L149.606 437.029L149.606 437.018L147.622 436.991ZM149.719 442.093L148.723 443.861L148.757 443.88L148.793 443.898L149.719 442.093ZM152.005 445.411C150.942 445.725 150.038 445.796 149.264 445.69L148.639 449.683C150.057 449.877 151.529 449.719 153.026 449.277L152.005 445.411ZM149.309 445.697C148.435 445.557 147.687 445.28 147.042 444.883L144.921 448.342C146.029 449.024 147.261 449.463 148.594 449.677L149.309 445.697ZM147.106 444.924C146.455 444.487 145.889 443.93 145.406 443.236L142.143 445.615C142.89 446.687 143.795 447.588 144.857 448.301L147.106 444.924ZM145.442 443.29C144.966 442.556 144.602 441.728 144.355 440.795L140.517 441.928C140.865 443.244 141.393 444.459 142.107 445.561L145.442 443.29ZM144.355 440.795C143.983 439.386 144.011 438.151 144.358 437.036L140.573 435.912C139.968 437.857 139.976 439.881 140.517 441.928L144.355 440.795ZM144.358 437.036C144.721 435.868 145.433 434.675 146.59 433.46L143.768 430.699C142.259 432.283 141.162 434.018 140.573 435.912L144.358 437.036ZM146.447 430.497C145.302 429.563 144.432 428.739 143.811 428.025L140.805 430.734C141.616 431.666 142.661 432.642 143.911 433.662L146.447 430.497ZM143.84 428.06C143.33 427.444 142.981 426.763 142.779 426.002L138.942 427.136C139.291 428.459 139.907 429.652 140.775 430.698L143.84 428.06ZM142.779 426.002C142.577 425.238 142.539 424.515 142.645 423.817L138.719 423.306C138.526 424.588 138.607 425.87 138.942 427.136L142.779 426.002ZM142.64 423.845C142.765 423.087 143.022 422.425 143.402 421.835L140.094 419.69C139.391 420.78 138.937 421.984 138.724 423.277L142.64 423.845ZM143.404 421.831C143.825 421.174 144.36 420.601 145.025 420.107L142.731 416.878C141.678 417.66 140.793 418.6 140.091 419.694L143.404 421.831ZM145.049 420.088C145.713 419.58 146.495 419.182 147.422 418.908L146.4 415.042C145.04 415.444 143.8 416.058 142.706 416.896L145.049 420.088ZM147.422 418.908C148.237 418.667 148.996 418.574 149.708 418.608L149.99 414.583C148.8 414.528 147.6 414.688 146.4 415.042L147.422 418.908ZM149.764 418.609C150.529 418.623 151.181 418.74 151.738 418.936L153.122 415.126C152.125 414.775 151.057 414.601 149.934 414.581L149.764 418.609ZM151.773 418.948C152.366 419.143 152.853 419.415 153.256 419.751L155.823 416.613C155.021 415.944 154.101 415.448 153.086 415.114L151.773 418.948ZM153.333 419.812C153.796 420.159 154.144 420.531 154.402 420.922L157.719 418.624C157.193 417.826 156.527 417.138 155.745 416.551L153.333 419.812ZM154.7 418.34L151.132 421.834L153.853 424.698L157.421 421.205L154.7 418.34ZM154.141 422.102C153.43 421.046 152.503 420.222 151.341 419.748L149.78 423.491C150.131 423.634 150.492 423.907 150.844 424.43L154.141 422.102ZM151.388 419.768C150.202 419.246 148.938 419.172 147.678 419.544L148.7 423.41C149.073 423.299 149.39 423.32 149.732 423.47L151.388 419.768ZM147.678 419.544C146.448 419.907 145.385 420.638 144.693 421.795L148.074 423.822C148.155 423.686 148.297 423.529 148.7 423.41L147.678 419.544ZM144.665 421.843C144.004 423.016 143.915 424.296 144.24 425.526L148.078 424.393C147.983 424.032 148.043 423.878 148.101 423.775L144.665 421.843ZM144.24 425.526L144.295 425.732L148.132 424.598L148.078 424.393L144.24 425.526ZM144.295 425.732C144.446 426.303 144.676 426.841 144.987 427.338L148.354 425.118C148.259 424.966 148.185 424.795 148.132 424.598L144.295 425.732ZM145.012 427.377C145.325 427.851 145.738 428.298 146.19 428.716L148.903 425.706C148.579 425.407 148.408 425.198 148.329 425.079L145.012 427.377ZM146.234 428.755C146.636 429.104 147.124 429.511 147.695 429.975L150.224 426.806C149.673 426.358 149.22 425.98 148.86 425.667L146.234 428.755ZM147.78 430.04C148.361 430.46 149.087 430.985 149.957 431.615L152.316 428.315C151.445 427.685 150.719 427.16 150.139 426.74L147.78 430.04ZM149.949 431.609L153.06 433.884L155.435 430.595L152.324 428.321L149.949 431.609ZM152.916 433.767L155.681 436.232L158.345 433.178L155.58 430.712L152.916 433.767ZM157.524 436.638L157.769 436.565L156.747 432.7L156.502 432.772L157.524 436.638ZM159.236 434.41C159.19 433.863 159.117 433.285 159.02 432.678L155.1 433.422C155.183 433.945 155.243 434.422 155.279 434.855L159.236 434.41ZM159.018 432.669C158.915 432.046 158.798 431.427 158.667 430.812L154.785 431.76C154.903 432.313 155.008 432.87 155.101 433.431L159.018 432.669ZM158.683 430.896C158.569 430.223 158.431 429.58 158.269 428.967L154.432 430.1C154.56 430.585 154.672 431.109 154.768 431.675L158.683 430.896ZM158.292 429.059C158.161 428.451 158.03 427.894 157.897 427.391L154.059 428.525C154.173 428.954 154.29 429.448 154.41 430.008L158.292 429.059ZM156.489 429.891L163.759 427.744L162.738 423.878L155.467 426.025L156.489 429.891ZM161.33 426.378L162.526 430.903L166.363 429.77L165.167 425.244L161.33 426.378ZM163.934 428.403L161.075 429.248L162.096 433.114L164.955 432.269L163.934 428.403ZM159.611 431.443C159.697 432.265 159.729 433.143 159.705 434.076L163.675 434.079C163.703 432.986 163.666 431.932 163.56 430.919L159.611 431.443ZM159.706 434.059C159.676 434.945 159.579 435.891 159.41 436.901L163.325 437.477C163.521 436.309 163.638 435.181 163.675 434.095L159.706 434.059ZM160.211 438.854L167.238 443.787L169.553 440.455L162.525 435.523L160.211 438.854ZM167.885 440.188L161.431 442.094L162.453 445.96L168.906 444.054L167.885 440.188ZM163.098 442.36L158.775 439.334L156.465 442.668L160.787 445.694L163.098 442.36ZM157.109 439.068L156.823 439.153L157.845 443.019L158.131 442.934L157.109 439.068ZM155.364 441.384C155.481 442.34 155.269 443.07 154.77 443.719L157.88 446.145C159.085 444.576 159.545 442.742 159.305 440.787L155.364 441.384ZM154.77 443.719C154.249 444.398 153.395 445 152.005 445.411L153.026 449.277C155.012 448.69 156.698 447.685 157.88 446.145L154.77 443.719ZM153.309 444.181C154.162 443.929 154.952 443.534 155.654 442.985L153.28 439.816C153.01 440.028 152.686 440.198 152.287 440.315L153.309 444.181ZM155.72 442.93C156.575 442.203 157.111 441.24 157.413 440.194L153.603 439.153C153.476 439.594 153.318 439.782 153.214 439.87L155.72 442.93ZM156.7 438.033L149.648 432.842L147.264 436.123L154.316 441.314L156.7 438.033ZM146.758 433.482C146.111 434.58 145.683 435.751 145.638 436.964L149.606 437.018C149.619 436.676 149.747 436.174 150.154 435.483L146.758 433.482ZM145.639 436.942C145.591 437.921 145.706 438.901 145.963 439.876L149.801 438.742C149.638 438.126 149.58 437.561 149.605 437.04L145.639 436.942ZM145.963 439.876L145.985 439.958L149.823 438.825L149.801 438.742L145.963 439.876ZM145.985 439.958C146.419 441.599 147.262 443.039 148.723 443.861L150.714 440.326C150.452 440.178 150.085 439.817 149.823 438.825L145.985 439.958ZM148.793 443.898C150.207 444.618 151.765 444.637 153.309 444.181L152.287 440.315C151.489 440.551 150.994 440.467 150.645 440.289L148.793 443.898ZM179.783 424.963L177.845 425.45L177.854 425.49L177.864 425.53L179.783 424.963ZM177.99 416.844L179.928 416.356L179.478 414.32L177.479 414.911L177.99 416.844ZM177.622 416.952L177.111 415.019L175.765 415.417L175.644 416.827L177.622 416.952ZM176.216 433.291L174.586 434.482L177.716 438.968L178.194 433.416L176.216 433.291ZM167.003 420.089L168.633 418.898L167.838 417.758L166.492 418.156L167.003 420.089ZM166.635 420.197L166.124 418.265L164.125 418.855L164.739 420.843L166.635 420.197ZM169.082 428.124L171.001 427.557L170.991 427.517L170.979 427.478L169.082 428.124ZM172.464 440.919L172.975 442.852L174.894 442.285L174.383 440.352L172.464 440.919ZM167.154 442.487L165.235 443.054L165.746 444.987L167.665 444.42L167.154 442.487ZM159.565 413.77L159.054 411.837L157.135 412.404L157.646 414.337L159.565 413.77ZM166.794 411.634L168.42 410.438L167.624 409.305L166.283 409.702L166.794 411.634ZM172.862 420.265L171.235 421.462L172.031 422.595L173.372 422.198L172.862 420.265ZM173.188 420.169L173.699 422.102L175.04 421.706L175.166 420.301L173.188 420.169ZM174.146 409.463L173.635 407.53L172.294 407.926L172.168 409.331L174.146 409.463ZM180.885 407.472L182.804 406.905L182.293 404.973L180.374 405.539L180.885 407.472ZM188.474 436.19L188.985 438.123L190.904 437.556L190.393 435.623L188.474 436.19ZM183.165 437.758L181.246 438.325L181.757 440.258L183.676 439.691L183.165 437.758ZM181.721 424.476L179.928 416.356L176.051 417.331L177.845 425.45L181.721 424.476ZM177.479 414.911L177.111 415.019L178.133 418.885L178.5 418.776L177.479 414.911ZM175.644 416.827L174.238 433.166L178.194 433.416L179.6 417.077L175.644 416.827ZM177.846 432.1L168.633 418.898L165.372 421.28L174.586 434.482L177.846 432.1ZM166.492 418.156L166.124 418.265L167.146 422.13L167.514 422.022L166.492 418.156ZM164.739 420.843L167.186 428.769L170.979 427.478L168.531 419.552L164.739 420.843ZM167.163 428.691L170.545 441.486L174.383 440.352L171.001 427.557L167.163 428.691ZM171.953 438.986L166.643 440.555L167.665 444.42L172.975 442.852L171.953 438.986ZM169.073 441.921L161.483 413.203L157.646 414.337L165.235 443.054L169.073 441.921ZM160.075 415.703L167.305 413.567L166.283 409.702L159.054 411.837L160.075 415.703ZM165.167 412.831L171.235 421.462L174.488 419.069L168.42 410.438L165.167 412.831ZM173.372 422.198L173.699 422.102L172.678 418.236L172.351 418.333L173.372 422.198ZM175.166 420.301L176.123 409.595L172.168 409.331L171.211 420.037L175.166 420.301ZM174.656 411.396L181.396 409.405L180.374 405.539L173.635 407.53L174.656 411.396ZM178.966 408.039L186.556 436.757L190.393 435.623L182.804 406.905L178.966 408.039ZM187.964 434.257L182.654 435.825L183.676 439.691L188.985 438.123L187.964 434.257ZM185.084 437.191L181.702 424.396L177.864 425.53L181.246 438.325L185.084 437.191ZM155.371 479.309L153.452 479.876L153.963 481.809L155.882 481.242L155.371 479.309ZM147.782 450.591L147.271 448.658L145.352 449.225L145.863 451.158L147.782 450.591ZM165.998 445.211L167.917 444.644L167.406 442.711L165.487 443.278L165.998 445.211ZM167.335 450.271L167.846 452.204L169.765 451.637L169.254 449.704L167.335 450.271ZM155.246 453.842L154.735 451.909L152.816 452.476L153.327 454.409L155.246 453.842ZM156.985 460.425L155.066 460.992L155.577 462.925L157.496 462.358L156.985 460.425ZM168.666 456.975L170.585 456.408L170.074 454.475L168.156 455.042L168.666 456.975ZM170.004 462.035L170.515 463.968L172.434 463.401L171.923 461.468L170.004 462.035ZM158.323 465.486L157.812 463.553L155.893 464.12L156.404 466.052L158.323 465.486ZM160.16 472.439L158.241 473.006L158.752 474.938L160.671 474.372L160.16 472.439ZM172.25 468.868L174.169 468.301L173.658 466.368L171.739 466.935L172.25 468.868ZM173.587 473.928L174.098 475.861L176.017 475.294L175.506 473.361L173.587 473.928ZM157.29 478.742L149.7 450.025L145.863 451.158L153.452 479.876L157.29 478.742ZM148.292 452.524L166.509 447.144L165.487 443.278L147.271 448.658L148.292 452.524ZM164.079 445.777L165.416 450.838L169.254 449.704L167.917 444.644L164.079 445.777ZM166.824 448.338L154.735 451.909L155.756 455.775L167.846 452.204L166.824 448.338ZM153.327 454.409L155.066 460.992L158.904 459.858L157.164 453.275L153.327 454.409ZM157.496 462.358L169.177 458.908L168.156 455.042L156.474 458.492L157.496 462.358ZM166.748 457.541L168.085 462.602L171.923 461.468L170.585 456.408L166.748 457.541ZM169.493 460.102L157.812 463.553L158.834 467.419L170.515 463.968L169.493 460.102ZM156.404 466.052L158.241 473.006L162.079 471.872L160.242 464.919L156.404 466.052ZM160.671 474.372L172.761 470.801L171.739 466.935L159.649 470.506L160.671 474.372ZM170.331 469.434L171.668 474.495L175.506 473.361L174.169 468.301L170.331 469.434ZM173.077 471.995L154.86 477.376L155.882 481.242L174.098 475.861L173.077 471.995Z" fill="black" mask="url(#path-12-outside-1_344_79)"/>
<path d="M87.9871 274.188C137.53 267.969 164.125 258.39 215.185 237.788" stroke="black" stroke-width="2"/>
<path d="M84.4944 200.803L91.6848 199.213C93.4772 198.816 94.9342 198.974 96.0556 199.687C97.1729 200.378 97.8859 201.498 98.1947 203.045C98.4909 204.53 98.3452 205.818 97.7576 206.908C97.1909 207.994 96.2761 208.863 95.0131 209.513L95.0069 209.645C96.1241 209.682 97.0516 209.968 97.7895 210.504C98.5483 211.034 99.0529 211.927 99.3032 213.182C99.4951 214.144 99.5078 215.08 99.3412 215.99C99.1746 216.9 98.8413 217.738 98.3412 218.504C97.862 219.265 97.2201 219.92 96.4157 220.469C95.6113 221.018 94.6776 221.41 93.6146 221.645L85.205 223.506L84.4944 200.803ZM92.3324 219.145C93.4995 218.887 94.379 218.441 94.9708 217.808C95.5835 217.17 95.8793 216.363 95.8583 215.385L95.8269 214.409C95.831 214.212 95.8247 214.017 95.808 213.824C95.7871 213.61 95.76 213.42 95.7266 213.252C95.4137 211.684 94.2256 211.128 92.1622 211.585L88.2544 212.449L88.4871 219.996L92.3324 219.145ZM91.5302 209.072C92.6557 208.823 93.4893 208.42 94.0312 207.864C94.5688 207.286 94.8271 206.508 94.8061 205.531L94.7747 204.555C94.7621 204.165 94.7328 203.855 94.6869 203.625C94.5284 202.83 94.1552 202.323 93.5674 202.104C93.0005 201.88 92.2689 201.867 91.3727 202.065L87.9338 202.826L88.1539 209.819L91.5302 209.072Z" fill="black"/>
<path d="M110.851 217.612L107.461 218.441L106.276 195.757L114.084 193.848C115.95 193.392 117.449 193.552 118.582 194.329C119.734 195.1 120.487 196.287 120.84 197.891C121.297 199.973 121.137 201.779 120.359 203.307C119.596 204.81 118.302 205.928 116.474 206.66L122.018 214.882L118.379 215.772L113.263 207.708L110.37 208.415L110.851 217.612ZM114.363 204.51C116.54 203.978 117.578 202.736 117.477 200.786L117.417 199.616C117.415 199.507 117.401 199.346 117.376 199.132C117.351 198.919 117.318 198.719 117.277 198.531C116.938 196.99 115.846 196.446 114 196.897L109.863 197.908L110.257 205.514L114.363 204.51Z" fill="black"/>
<path d="M141.422 209.381L139.328 203.797L132.339 205.799L131.292 212.283L127.721 213.306L132.058 188.856L136.676 187.532L144.931 208.376L141.422 209.381ZM134.841 191.716L134.564 191.795L132.832 202.566L138.312 200.996L134.841 191.716Z" fill="black"/>
<path d="M152.486 187.538L152.248 187.633L155.389 205.16L152.474 206.327L148.448 183.925L152.732 182.211L161.912 197.321L162.15 197.226L159.008 179.699L161.923 178.532L165.949 200.935L161.666 202.649L152.486 187.538Z" fill="black"/>
<path d="M169.222 174.728L174.537 172.03C175.604 171.488 176.622 171.175 177.589 171.089C178.557 171.004 179.452 171.122 180.275 171.444C181.098 171.766 181.845 172.282 182.515 172.992C183.185 173.702 183.755 174.582 184.227 175.631C186.217 180.062 186.899 183.82 186.273 186.906C185.647 189.992 183.877 192.275 180.962 193.754L175.018 196.771L169.222 174.728ZM179.913 191.029C181.399 190.275 182.362 189.214 182.8 187.846C183.249 186.449 183.211 184.75 182.686 182.749L181.773 179.311C181.674 178.932 181.551 178.529 181.406 178.101C181.26 177.674 181.109 177.285 180.952 176.935C179.756 174.273 177.901 173.58 175.386 174.857L173.1 176.017L177.398 192.306L179.913 191.029Z" fill="black"/>
<path d="M131.215 231.512C130.414 231.742 129.694 231.834 129.055 231.785C128.423 231.724 127.921 231.519 127.548 231.173L128.496 229.553C128.802 229.808 129.171 229.962 129.602 230.015C130.041 230.055 130.497 230.007 130.969 229.871C131.431 229.737 131.777 229.56 132.008 229.338C132.246 229.103 132.329 228.841 132.257 228.552C132.203 228.335 132.087 228.202 131.91 228.153C131.73 228.095 131.515 228.073 131.266 228.09L130.065 228.17C129.752 228.194 129.449 228.193 129.156 228.166C128.873 228.137 128.614 228.068 128.377 227.959C128.138 227.839 127.931 227.672 127.756 227.456C127.592 227.238 127.465 226.953 127.377 226.602C127.266 226.157 127.255 225.739 127.344 225.348C127.441 224.943 127.62 224.582 127.881 224.262C128.15 223.93 128.491 223.643 128.904 223.402C129.314 223.151 129.776 222.952 130.289 222.804C130.998 222.599 131.66 222.519 132.276 222.563C132.89 222.597 133.374 222.751 133.729 223.025L132.816 224.651C132.584 224.474 132.275 224.359 131.887 224.304C131.499 224.25 131.079 224.288 130.628 224.418C130.227 224.533 129.922 224.699 129.712 224.915C129.512 225.127 129.448 225.378 129.521 225.668C129.575 225.885 129.681 226.021 129.837 226.075C130.002 226.116 130.214 226.127 130.473 226.108L131.724 226.03C132.428 225.982 133.01 226.064 133.47 226.274C133.93 226.485 134.241 226.916 134.404 227.567C134.516 228.012 134.523 228.436 134.426 228.841C134.327 229.235 134.139 229.605 133.862 229.951C133.583 230.286 133.219 230.59 132.77 230.864C132.329 231.124 131.81 231.34 131.215 231.512Z" fill="black"/>
<path d="M141.439 228.435C140.808 228.639 140.295 228.627 139.898 228.397C139.498 228.158 139.22 227.756 139.062 227.192C139.013 227.017 138.976 226.845 138.95 226.674C138.925 226.503 138.898 226.249 138.87 225.911L138.22 218.773L135.902 219.524L135.701 217.676L140.261 216.199L141.205 226.531L141.456 226.533L142.975 223.642L144.501 224.339L143.872 225.717C143.517 226.469 143.152 227.069 142.778 227.514C142.414 227.957 141.967 228.264 141.439 228.435Z" fill="black"/>
<path d="M149.371 225.789C148.96 225.939 148.596 225.993 148.28 225.949C147.961 225.896 147.675 225.768 147.422 225.566C147.165 225.354 146.941 225.068 146.75 224.707C146.559 224.347 146.389 223.928 146.239 223.45C146.001 222.688 145.865 221.968 145.832 221.29C145.795 220.601 145.858 219.978 146.019 219.421C146.18 218.864 146.439 218.385 146.795 217.984C147.157 217.569 147.609 217.263 148.152 217.065C148.744 216.849 149.227 216.837 149.601 217.029C149.981 217.207 150.308 217.535 150.58 218.013L150.686 217.975L150.469 216.424L152.669 215.622L153.595 222.229L154.393 221.938L154.632 223.668L153.502 224.08C152.93 224.288 152.454 224.304 152.073 224.125C151.703 223.943 151.472 223.563 151.381 222.985L151.349 222.776L151.274 222.804C151.218 223.163 151.15 223.5 151.069 223.812C150.995 224.111 150.886 224.388 150.742 224.644C150.608 224.897 150.432 225.12 150.213 225.313C149.993 225.506 149.713 225.665 149.371 225.789ZM149.827 223.705C150.088 223.609 150.303 223.457 150.473 223.248C150.642 223.039 150.778 222.792 150.878 222.506C150.944 222.324 151.006 222.075 151.064 221.759C151.122 221.444 151.125 221.114 151.074 220.771L150.889 219.429C150.829 218.987 150.679 218.685 150.438 218.524C150.207 218.359 149.856 218.362 149.384 218.534C148.831 218.736 148.475 219.047 148.316 219.467C148.153 219.877 148.116 220.4 148.203 221.036L148.338 222.006C148.347 222.105 148.365 222.217 148.393 222.342C148.418 222.458 148.453 222.587 148.498 222.729C148.612 223.095 148.774 223.381 148.984 223.587C149.194 223.794 149.475 223.833 149.827 223.705ZM147.289 216.293C146.877 216.443 146.562 216.473 146.344 216.382C146.132 216.278 145.99 216.11 145.917 215.876C145.901 215.825 145.885 215.757 145.87 215.672C145.864 215.584 145.849 215.465 145.825 215.315C145.789 215.022 145.837 214.762 145.966 214.533C146.093 214.295 146.378 214.095 146.819 213.934C147.231 213.784 147.543 213.761 147.755 213.865C147.973 213.955 148.119 214.117 148.192 214.35C148.208 214.401 148.218 214.471 148.224 214.56C148.239 214.644 148.259 214.762 148.283 214.911C148.319 215.204 148.274 215.47 148.147 215.708C148.017 215.937 147.731 216.131 147.289 216.293ZM150.573 215.095C150.162 215.245 149.847 215.275 149.628 215.185C149.416 215.081 149.274 214.912 149.201 214.679C149.185 214.628 149.169 214.56 149.154 214.475C149.149 214.386 149.134 214.267 149.109 214.118C149.074 213.825 149.121 213.565 149.251 213.336C149.378 213.098 149.662 212.898 150.104 212.737C150.516 212.586 150.827 212.563 151.039 212.667C151.257 212.758 151.403 212.919 151.476 213.153C151.492 213.204 151.503 213.274 151.508 213.362C151.524 213.447 151.543 213.565 151.568 213.714C151.604 214.007 151.558 214.272 151.431 214.511C151.301 214.739 151.015 214.934 150.573 215.095Z" fill="black"/>
<path d="M160.091 221.739C159.042 222.169 158.145 222.209 157.4 221.86C156.655 221.51 156.1 220.813 155.735 219.768C155.503 219.105 155.379 218.444 155.363 217.784C155.343 217.114 155.435 216.485 155.636 215.897C155.838 215.31 156.157 214.783 156.593 214.317C157.036 213.836 157.599 213.456 158.282 213.177C159.163 212.816 159.899 212.721 160.491 212.892C161.083 213.063 161.566 213.411 161.942 213.934L160.471 215.502C160.249 215.225 160.011 215.03 159.756 214.916C159.502 214.802 159.156 214.834 158.721 215.013C158.295 215.187 157.983 215.476 157.785 215.879C157.596 216.277 157.553 216.766 157.653 217.345L157.821 218.31C157.833 218.409 157.857 218.525 157.893 218.66C157.929 218.795 157.968 218.922 158.01 219.043C158.15 219.445 158.364 219.731 158.649 219.901C158.942 220.057 159.335 220.033 159.83 219.831C159.988 219.766 160.131 219.69 160.259 219.603C160.384 219.506 160.504 219.365 160.62 219.179C160.746 218.99 160.871 218.749 160.996 218.457C161.126 218.151 161.262 217.762 161.402 217.291L163.064 217.627C162.951 218.144 162.82 218.611 162.672 219.028C162.524 219.445 162.335 219.827 162.105 220.173C161.872 220.51 161.592 220.808 161.265 221.069C160.937 221.329 160.546 221.553 160.091 221.739Z" fill="black"/>
<path d="M167.924 218.454C167.525 218.636 167.168 218.718 166.851 218.699C166.53 218.67 166.237 218.564 165.972 218.382C165.702 218.19 165.46 217.921 165.246 217.575C165.031 217.229 164.834 216.823 164.653 216.357C164.364 215.613 164.18 214.903 164.101 214.227C164.018 213.541 164.038 212.913 164.16 212.343C164.283 211.774 164.507 211.274 164.833 210.845C165.165 210.402 165.594 210.06 166.119 209.82C166.694 209.558 167.173 209.509 167.557 209.672C167.947 209.821 168.294 210.124 168.597 210.581L168.699 210.534L168.379 208.999L170.51 208.026L171.88 214.564L172.653 214.211L173.008 215.923L171.914 216.423C171.359 216.676 170.886 216.728 170.496 216.579C170.116 216.426 169.861 216.064 169.731 215.493L169.685 215.286L169.612 215.319C169.581 215.683 169.536 216.025 169.477 216.344C169.423 216.649 169.334 216.935 169.209 217.202C169.093 217.465 168.933 217.702 168.728 217.912C168.523 218.122 168.255 218.303 167.924 218.454ZM168.235 216.333C168.488 216.217 168.692 216.049 168.846 215.826C169.001 215.604 169.118 215.346 169.199 215.052C169.252 214.865 169.297 214.611 169.333 214.291C169.369 213.971 169.35 213.641 169.275 213.301L169 211.973C168.911 211.535 168.741 211.245 168.49 211.102C168.25 210.955 167.901 210.986 167.444 211.195C166.908 211.439 166.576 211.778 166.446 212.211C166.312 212.634 166.31 213.16 166.44 213.79L166.641 214.749C166.656 214.847 166.682 214.958 166.718 215.081C166.751 215.195 166.794 215.321 166.848 215.46C166.987 215.817 167.167 216.091 167.39 216.281C167.613 216.471 167.895 216.488 168.235 216.333Z" fill="black"/>
<path d="M176.709 214.176L175.157 207.792L173.464 208.643L173.024 206.832L176.811 204.929L177.399 207.414L177.485 207.371C177.482 206.493 177.63 205.735 177.928 205.099C178.225 204.462 178.738 203.961 179.464 203.596L179.952 203.351L180.492 205.681L179.187 206.337C178.795 206.534 178.502 206.747 178.309 206.975C178.125 207.198 177.995 207.465 177.919 207.776C177.873 207.942 177.84 208.178 177.82 208.485C177.8 208.792 177.822 209.09 177.887 209.378L178.803 213.124L176.709 214.176Z" fill="black"/>
<path d="M187.997 208.581C186.916 209.17 185.988 209.325 185.213 209.047C184.434 208.758 183.815 208.117 183.357 207.122C183.037 206.426 182.849 205.737 182.794 205.055C182.738 204.372 182.801 203.728 182.98 203.123C183.17 202.512 183.476 201.952 183.901 201.444C184.325 200.935 184.861 200.504 185.51 200.15C185.877 199.951 186.24 199.807 186.599 199.72C186.968 199.628 187.315 199.602 187.64 199.643C187.96 199.674 188.25 199.782 188.511 199.966C188.768 200.14 188.976 200.401 189.136 200.749C189.274 201.048 189.351 201.381 189.366 201.747C189.382 202.113 189.269 202.519 189.027 202.964C188.791 203.395 188.388 203.874 187.819 204.402C187.256 204.914 186.466 205.471 185.449 206.073C185.467 206.136 185.484 206.187 185.502 206.225C185.515 206.254 185.531 206.288 185.549 206.327C185.735 206.733 185.986 206.983 186.3 207.078C186.614 207.172 187.02 207.084 187.518 206.813C187.716 206.705 187.885 206.589 188.027 206.463C188.179 206.332 188.308 206.177 188.414 205.999C188.524 205.806 188.62 205.591 188.699 205.354C188.783 205.103 188.861 204.801 188.934 204.447L190.61 204.603C190.551 204.986 190.467 205.364 190.357 205.738C190.252 206.097 190.103 206.45 189.91 206.797C189.712 207.134 189.459 207.453 189.151 207.754C188.842 208.055 188.458 208.331 187.997 208.581ZM185.985 201.758C185.534 202.004 185.213 202.354 185.022 202.808C184.827 203.252 184.813 203.834 184.979 204.553L185.03 204.779C185.661 204.387 186.14 204.048 186.466 203.761C186.802 203.469 187.033 203.217 187.158 203.004C187.293 202.785 187.353 202.596 187.338 202.435C187.322 202.274 187.288 202.136 187.235 202.02C187.003 201.518 186.587 201.43 185.985 201.758Z" fill="black"/>
<path d="M77.37 176.703L77.2266 176.716C77.0159 177.442 76.637 178.079 76.0898 178.626C75.5586 179.173 74.799 179.491 73.8111 179.58C73.2215 179.634 72.6715 179.587 72.1611 179.441C71.6494 179.278 71.2011 179.014 70.8164 178.647C70.4316 178.28 70.111 177.82 69.8546 177.264C69.6142 176.708 69.4618 176.055 69.3975 175.306L68.7122 167.319L72.2496 166.998L72.8939 174.507C73.0307 176.101 73.7923 176.835 75.1786 176.709C75.4495 176.684 75.7096 176.629 75.9591 176.542C76.2232 176.438 76.4446 176.305 76.6235 176.144C76.817 175.966 76.9679 175.759 77.0762 175.525C77.1846 175.29 77.2257 175.021 77.1997 174.718L76.5042 166.612L80.0416 166.291L81.1004 178.63L77.5629 178.951L77.37 176.703Z" fill="black"/>
<path d="M96.325 179.228C96.5392 180.522 96.1542 181.576 95.1699 182.39C94.1857 183.203 92.5288 183.822 90.1991 184.247C89.0343 184.459 88.0624 184.563 87.2833 184.559C86.5069 184.57 85.8695 184.491 85.3712 184.322C84.8887 184.15 84.5243 183.907 84.2779 183.594C84.0473 183.279 83.898 182.915 83.8301 182.505C83.7152 181.81 83.8323 181.244 84.1815 180.807C84.5333 180.385 85.0634 180.012 85.7719 179.688L85.7484 179.545C85.2028 179.482 84.7491 179.337 84.3873 179.111C84.0386 178.865 83.8198 178.474 83.731 177.937C83.6317 177.338 83.7553 176.86 84.1018 176.504C84.4641 176.145 84.9627 175.827 85.5977 175.548L85.5742 175.406C84.7926 175.191 84.145 174.805 83.6312 174.248C83.1332 173.688 82.8098 172.959 82.6609 172.059C82.5434 171.348 82.5661 170.702 82.7291 170.119C82.8896 169.521 83.168 168.999 83.5644 168.552C83.9765 168.103 84.4896 167.725 85.1036 167.418C85.7177 167.111 86.4261 166.884 87.2288 166.738C88.0001 166.598 88.7307 166.554 89.4206 166.607L89.3108 165.944C89.2325 165.47 89.3325 165.046 89.6108 164.67C89.8891 164.294 90.3194 164.053 90.9018 163.947L93.0505 163.555L93.4736 166.112L90.5458 166.646L90.5811 166.859C91.2997 167.086 91.8909 167.474 92.3548 168.024C92.8319 168.555 93.1422 169.254 93.2859 170.122C93.4034 170.833 93.3807 171.479 93.2177 172.062C93.0546 172.644 92.7683 173.168 92.3588 173.633C91.9467 174.082 91.4257 174.462 90.7959 174.772C90.1819 175.079 89.4735 175.305 88.6707 175.452C88.3087 175.518 87.9598 175.565 87.624 175.594C87.2856 175.607 86.9604 175.601 86.6482 175.576C86.4908 175.703 86.3608 175.848 86.2584 176.013C86.1717 176.175 86.1467 176.367 86.1832 176.588C86.2146 176.777 86.2866 176.919 86.3993 177.012C86.5121 177.105 86.6524 177.169 86.8202 177.204C87.0012 177.219 87.2032 177.215 87.4262 177.191C87.6492 177.166 87.8787 177.133 88.1148 177.09L90.9009 176.582C91.7667 176.424 92.5208 176.376 93.1635 176.438C93.8061 176.5 94.3503 176.653 94.796 176.897C95.2418 177.141 95.5865 177.46 95.8302 177.854C96.0739 178.249 96.2388 178.707 96.325 179.228ZM93.0626 180.091C93.0103 179.775 92.8426 179.545 92.5594 179.402C92.2788 179.274 91.7843 179.275 91.076 179.404L86.8969 180.166C86.6264 180.491 86.5239 180.851 86.5892 181.246C86.6519 181.625 86.8602 181.904 87.2142 182.083C87.5866 182.276 88.1584 182.302 88.9297 182.161L90.9839 181.787C91.7866 181.64 92.3508 181.424 92.6762 181.137C93.0017 180.85 93.1305 180.501 93.0626 180.091ZM88.3024 173.226C89.0108 173.097 89.4936 172.83 89.751 172.425C90.024 172.018 90.1162 171.546 90.0274 171.009L89.9333 170.441C89.8445 169.904 89.6061 169.492 89.2181 169.205C88.8458 168.915 88.3055 168.835 87.5972 168.964C86.9046 169.09 86.4296 169.356 86.1722 169.76C85.9149 170.165 85.8306 170.636 85.9194 171.172L86.0135 171.74C86.1023 172.277 86.3328 172.69 86.7051 172.98C87.0774 173.27 87.6098 173.352 88.3024 173.226Z" fill="black"/>
<path d="M95.8801 159.154L99.3619 158.451L100.732 165.959L100.873 165.931C100.951 165.556 101.065 165.198 101.214 164.858C101.364 164.518 101.559 164.209 101.801 163.932C102.056 163.636 102.36 163.387 102.714 163.185C103.08 162.964 103.506 162.805 103.993 162.707C104.573 162.59 105.125 162.584 105.648 162.691C106.169 162.782 106.638 162.989 107.055 163.313C107.472 163.637 107.826 164.063 108.117 164.592C108.425 165.117 108.646 165.75 108.781 166.49L110.22 174.375L106.738 175.078L105.385 167.664C105.098 166.09 104.272 165.441 102.907 165.716C102.641 165.77 102.381 165.863 102.129 165.996C101.89 166.109 101.682 166.265 101.507 166.464C101.329 166.647 101.198 166.861 101.112 167.106C101.043 167.349 101.035 167.62 101.09 167.919L102.55 175.923L99.0686 176.625L95.8801 159.154Z" fill="black"/>
<path d="M114.246 166.722L111.634 161.133L110.6 156.372L114.38 155.46L115.413 160.221L115.366 166.452L114.246 166.722ZM116.104 172.568C115.264 172.771 114.634 172.734 114.214 172.456C113.793 172.179 113.529 171.791 113.42 171.29L113.258 170.54C113.152 170.055 113.232 169.592 113.496 169.149C113.776 168.704 114.328 168.381 115.152 168.182C115.977 167.983 116.599 168.023 117.019 168.3C117.455 168.573 117.725 168.952 117.83 169.437L117.993 170.187C118.102 170.688 118.024 171.159 117.76 171.601C117.496 172.043 116.944 172.366 116.104 172.568Z" fill="black"/>
<path d="M124.163 164.515L121.116 159.166L119.705 154.502L123.387 153.253L124.798 157.917L125.254 164.145L124.163 164.515ZM126.48 170.188C125.662 170.465 125.033 170.485 124.593 170.245C124.153 170.006 123.859 169.642 123.711 169.152L123.488 168.416C123.345 167.942 123.386 167.472 123.613 167.006C123.855 166.536 124.378 166.165 125.181 165.892C125.984 165.62 126.605 165.603 127.045 165.842C127.5 166.076 127.799 166.431 127.943 166.905L128.165 167.64C128.314 168.131 128.274 168.608 128.048 169.074C127.821 169.539 127.298 169.91 126.48 170.188Z" fill="black"/>
<path d="M133.355 160.662L130.159 155.406L128.615 150.785L132.255 149.419L133.799 154.04L134.434 160.257L133.355 160.662ZM135.833 166.265C135.024 166.568 134.397 166.607 133.951 166.382C133.505 166.157 133.2 165.801 133.038 165.315L132.795 164.587C132.638 164.117 132.666 163.645 132.879 163.172C133.107 162.694 133.618 162.306 134.412 162.008C135.206 161.71 135.826 161.674 136.272 161.899C136.733 162.119 137.042 162.464 137.199 162.934L137.442 163.663C137.604 164.148 137.579 164.628 137.366 165.1C137.153 165.573 136.642 165.961 135.833 166.265Z" fill="black"/>
<path d="M87.8113 270.569C132.349 266.681 155.075 256.221 212.723 233.676" stroke="black" stroke-width="2"/>
<path d="M81.2697 240.658C83.7568 237.514 89.8771 231.534 94.4618 232.763C100.193 234.298 96.9531 237.479 101.76 243.291C105.606 247.941 115.317 250.694 119.693 251.49C121.674 249.58 126.652 245.711 130.715 245.514C135.794 245.267 143.724 245.487 144.522 250.285C145.161 254.123 159.084 251.191 165.966 249.245" stroke="black" stroke-width="2"/>
</svg>
