<svg width="173" height="217" viewBox="0 0 173 217" fill="none" xmlns="http://www.w3.org/2000/svg">
<mask id="path-1-outside-1_344_186" maskUnits="userSpaceOnUse" x="-2" y="-2" width="179" height="221" fill="black">
<rect fill="white" x="-2" y="-2" width="179" height="221"/>
<path d="M58.1172 216.6C48.7172 216.6 40.4172 215 33.2172 211.8C26.2172 208.6 20.2172 204.3 15.2172 198.9C10.2172 193.5 6.41719 187.2 3.81719 180C1.41719 172.8 0.217188 165.1 0.217188 156.9C0.217188 144.9 3.11719 133.9 8.91719 123.9C14.7172 113.9 24.0172 105.4 36.8172 98.4C30.4172 90 25.5172 82.3 22.1172 75.3C18.9172 68.1 17.3172 60.4 17.3172 52.2C17.3172 44.6 18.7172 37.6 21.5172 31.2C24.5172 24.8 28.5172 19.3 33.5172 14.7C38.7172 10.1 44.8172 6.49999 51.8172 3.89999C58.8172 1.29999 66.4172 -1.14441e-05 74.6172 -1.14441e-05C81.8172 -1.14441e-05 88.4172 0.999988 94.4172 2.99999C100.417 4.99998 105.717 7.69998 110.317 11.1C115.117 14.3 119.117 18.1 122.317 22.5C125.517 26.7 127.917 31.1 129.517 35.7L102.217 50.1C100.017 43.7 96.4172 38.7 91.4172 35.1C86.6172 31.3 81.0172 29.4 74.6172 29.4C67.6172 29.4 62.0172 31.5 57.8172 35.7C53.6172 39.9 51.5172 45.2 51.5172 51.6V53.4C51.5172 56.4 51.9172 59.2 52.7172 61.8C53.5172 64.4 54.8172 67.3 56.6172 70.5C58.6172 73.7 61.1172 77.3 64.1172 81.3C67.1172 85.3 70.9172 90.1 75.5172 95.7L95.3172 120.9L112.117 144.3H113.917C114.517 140.7 115.017 136.8 115.417 132.6C115.817 128.4 116.117 124.1 116.317 119.7C116.717 115.1 116.917 110.7 116.917 106.5C117.117 102.1 117.217 98 117.217 94.2L167.317 94.2V123.3H146.017C144.817 130.7 143.317 137.9 141.517 144.9C139.917 151.7 137.417 159 134.017 166.8L172.417 213H130.717L106.117 183.3H104.017C102.217 193.5 97.2172 201.6 89.0172 207.6C81.0172 213.6 70.7172 216.6 58.1172 216.6ZM67.7172 186.3C73.5172 186.3 78.8172 185.2 83.6172 183C88.4172 180.8 92.3172 177.1 95.3172 171.9L52.7172 118.5C46.3172 123.7 42.0172 129.3 39.8172 135.3C37.6172 141.1 36.5172 147.3 36.5172 153.9V155.4C36.5172 165.4 39.3172 173.1 44.9172 178.5C50.5172 183.7 58.1172 186.3 67.7172 186.3Z"/>
</mask>
<path d="M58.1172 216.6C48.7172 216.6 40.4172 215 33.2172 211.8C26.2172 208.6 20.2172 204.3 15.2172 198.9C10.2172 193.5 6.41719 187.2 3.81719 180C1.41719 172.8 0.217188 165.1 0.217188 156.9C0.217188 144.9 3.11719 133.9 8.91719 123.9C14.7172 113.9 24.0172 105.4 36.8172 98.4C30.4172 90 25.5172 82.3 22.1172 75.3C18.9172 68.1 17.3172 60.4 17.3172 52.2C17.3172 44.6 18.7172 37.6 21.5172 31.2C24.5172 24.8 28.5172 19.3 33.5172 14.7C38.7172 10.1 44.8172 6.49999 51.8172 3.89999C58.8172 1.29999 66.4172 -1.14441e-05 74.6172 -1.14441e-05C81.8172 -1.14441e-05 88.4172 0.999988 94.4172 2.99999C100.417 4.99998 105.717 7.69998 110.317 11.1C115.117 14.3 119.117 18.1 122.317 22.5C125.517 26.7 127.917 31.1 129.517 35.7L102.217 50.1C100.017 43.7 96.4172 38.7 91.4172 35.1C86.6172 31.3 81.0172 29.4 74.6172 29.4C67.6172 29.4 62.0172 31.5 57.8172 35.7C53.6172 39.9 51.5172 45.2 51.5172 51.6V53.4C51.5172 56.4 51.9172 59.2 52.7172 61.8C53.5172 64.4 54.8172 67.3 56.6172 70.5C58.6172 73.7 61.1172 77.3 64.1172 81.3C67.1172 85.3 70.9172 90.1 75.5172 95.7L95.3172 120.9L112.117 144.3H113.917C114.517 140.7 115.017 136.8 115.417 132.6C115.817 128.4 116.117 124.1 116.317 119.7C116.717 115.1 116.917 110.7 116.917 106.5C117.117 102.1 117.217 98 117.217 94.2L167.317 94.2V123.3H146.017C144.817 130.7 143.317 137.9 141.517 144.9C139.917 151.7 137.417 159 134.017 166.8L172.417 213H130.717L106.117 183.3H104.017C102.217 193.5 97.2172 201.6 89.0172 207.6C81.0172 213.6 70.7172 216.6 58.1172 216.6ZM67.7172 186.3C73.5172 186.3 78.8172 185.2 83.6172 183C88.4172 180.8 92.3172 177.1 95.3172 171.9L52.7172 118.5C46.3172 123.7 42.0172 129.3 39.8172 135.3C37.6172 141.1 36.5172 147.3 36.5172 153.9V155.4C36.5172 165.4 39.3172 173.1 44.9172 178.5C50.5172 183.7 58.1172 186.3 67.7172 186.3Z" fill="#FF4218"/>
<path d="M33.2172 211.8L32.3857 213.619L32.3953 213.623L32.4049 213.628L33.2172 211.8ZM15.2172 198.9L13.7497 200.259L15.2172 198.9ZM3.81719 180L1.91982 180.632L1.92766 180.656L1.93608 180.679L3.81719 180ZM8.91719 123.9L7.18713 122.897L8.91719 123.9ZM36.8172 98.4L37.7768 100.155L39.818 99.0385L38.4081 97.1879L36.8172 98.4ZM22.1172 75.3L20.2896 76.1123L20.3033 76.1433L20.3182 76.1738L22.1172 75.3ZM21.5172 31.2L19.7063 30.3511L19.6953 30.3746L19.6849 30.3984L21.5172 31.2ZM33.5172 14.7L32.192 13.202L32.1774 13.2149L32.1631 13.2281L33.5172 14.7ZM110.317 11.1L109.128 12.7083L109.167 12.7372L109.208 12.7641L110.317 11.1ZM122.317 22.5L120.7 23.6763L120.713 23.6943L120.726 23.7121L122.317 22.5ZM129.517 35.7L130.45 37.469L131.971 36.6668L131.406 35.043L129.517 35.7ZM102.217 50.1L100.326 50.7501L101.085 52.9584L103.15 51.869L102.217 50.1ZM91.4172 35.1L90.1758 36.6681L90.2116 36.6964L90.2486 36.7231L91.4172 35.1ZM57.8172 35.7L59.2314 37.1142H59.2314L57.8172 35.7ZM52.7172 61.8L50.8056 62.3882L52.7172 61.8ZM56.6172 70.5L54.874 71.4805L54.8967 71.5208L54.9212 71.56L56.6172 70.5ZM64.1172 81.3L62.5172 82.5L64.1172 81.3ZM75.5172 95.7L77.0898 94.4643L77.0764 94.4473L77.0626 94.4305L75.5172 95.7ZM95.3172 120.9L96.9418 119.734L96.9166 119.698L96.8898 119.664L95.3172 120.9ZM112.117 144.3L110.493 145.466L111.091 146.3H112.117V144.3ZM113.917 144.3V146.3H115.611L115.89 144.629L113.917 144.3ZM116.317 119.7L114.325 119.527L114.321 119.568L114.319 119.609L116.317 119.7ZM116.917 106.5L114.919 106.409L114.917 106.455V106.5H116.917ZM117.217 94.2V92.2H115.217V94.2H117.217ZM167.317 94.2H169.317V92.2H167.317V94.2ZM167.317 123.3V125.3H169.317V123.3H167.317ZM146.017 123.3V121.3H144.315L144.043 122.98L146.017 123.3ZM141.517 144.9L139.58 144.402L139.575 144.422L139.57 144.442L141.517 144.9ZM134.017 166.8L132.184 166.001L131.691 167.131L132.479 168.078L134.017 166.8ZM172.417 213V215H176.68L173.955 211.722L172.417 213ZM130.717 213L129.177 214.276L129.777 215H130.717V213ZM106.117 183.3L107.657 182.024L107.058 181.3H106.117V183.3ZM104.017 183.3V181.3H102.339L102.048 182.952L104.017 183.3ZM89.0172 207.6L87.8362 205.986L87.8266 205.993L87.8172 206L89.0172 207.6ZM83.6172 183L84.4505 184.818L83.6172 183ZM95.3172 171.9L97.0496 172.899L97.7309 171.719L96.8806 170.653L95.3172 171.9ZM52.7172 118.5L54.2806 117.253L53.0222 115.675L51.456 116.948L52.7172 118.5ZM39.8172 135.3L41.6872 136.009L41.6911 135.999L41.6949 135.989L39.8172 135.3ZM44.9172 178.5L43.5289 179.94L43.5425 179.953L43.5563 179.966L44.9172 178.5ZM58.1172 214.6C48.9439 214.6 40.9293 213.039 34.0295 209.972L32.4049 213.628C39.9051 216.961 48.4905 218.6 58.1172 218.6V214.6ZM34.0487 209.981C27.2778 206.886 21.497 202.738 16.6847 197.541L13.7497 200.259C18.9374 205.862 25.1566 210.314 32.3857 213.619L34.0487 209.981ZM16.6847 197.541C11.874 192.346 8.21106 186.279 5.6983 179.321L1.93608 180.679C4.62332 188.121 8.56038 194.654 13.7497 200.259L16.6847 197.541ZM5.71455 179.368C3.38779 172.387 2.21719 164.902 2.21719 156.9H-1.78281C-1.78281 165.298 -0.553413 173.213 1.91982 180.632L5.71455 179.368ZM2.21719 156.9C2.21719 145.238 5.03096 134.587 10.6473 124.903L7.18713 122.897C1.20342 133.213 -1.78281 144.562 -1.78281 156.9H2.21719ZM10.6473 124.903C16.2216 115.293 25.2143 107.025 37.7768 100.155L35.8576 96.6452C22.82 103.775 13.2128 112.507 7.18713 122.897L10.6473 124.903ZM38.4081 97.1879C32.0621 88.8588 27.2419 81.2731 23.9162 74.4262L20.3182 76.1738C23.7925 83.3269 28.7723 91.1412 35.2263 99.6121L38.4081 97.1879ZM23.9448 74.4877C20.8631 67.5539 19.3172 60.1318 19.3172 52.2H15.3172C15.3172 60.6682 16.9713 68.6461 20.2896 76.1123L23.9448 74.4877ZM19.3172 52.2C19.3172 44.8514 20.6695 38.1273 23.3495 32.0016L19.6849 30.3984C16.7649 37.0727 15.3172 44.3486 15.3172 52.2H19.3172ZM23.3281 32.0489C26.2223 25.8746 30.0703 20.5888 34.8713 16.1719L32.1631 13.2281C26.9641 18.0112 22.8121 23.7254 19.7063 30.3511L23.3281 32.0489ZM34.8423 16.198C39.8442 11.7733 45.727 8.29556 52.5136 5.77484L51.1208 2.02514C43.9074 4.70442 37.5902 8.42674 32.192 13.202L34.8423 16.198ZM52.5136 5.77484C59.2699 3.26535 66.6316 1.99999 74.6172 1.99999V-2.00001C66.2028 -2.00001 58.3645 -0.665375 51.1208 2.02514L52.5136 5.77484ZM74.6172 1.99999C81.6315 1.99999 88.0147 2.97401 93.7847 4.89735L95.0497 1.10262C88.8197 -0.974039 82.0029 -2.00001 74.6172 -2.00001V1.99999ZM93.7847 4.89735C99.6062 6.83783 104.714 9.44578 109.128 12.7083L111.506 9.49164C106.72 5.95419 101.228 3.16214 95.0497 1.10262L93.7847 4.89735ZM109.208 12.7641C113.823 15.8408 117.647 19.479 120.7 23.6763L123.935 21.3236C120.587 16.721 116.411 12.7592 111.427 9.43589L109.208 12.7641ZM120.726 23.7121C123.809 27.7581 126.103 31.9727 127.628 36.357L131.406 35.043C129.731 30.2273 127.225 25.6419 123.908 21.2879L120.726 23.7121ZM128.584 33.931L101.284 48.331L103.15 51.869L130.45 37.469L128.584 33.931ZM104.109 49.4498C101.788 42.699 97.9546 37.3425 92.5858 33.4769L90.2486 36.7231C94.8798 40.0575 98.2464 44.701 100.326 50.7501L104.109 49.4498ZM92.6586 33.5319C87.4884 29.4388 81.4458 27.4 74.6172 27.4V31.4C80.5886 31.4 85.746 33.1612 90.1758 36.6681L92.6586 33.5319ZM74.6172 27.4C67.1887 27.4 61.0444 29.6443 56.403 34.2858L59.2314 37.1142C62.9899 33.3557 68.0457 31.4 74.6172 31.4V27.4ZM56.403 34.2858C51.797 38.8918 49.5172 44.715 49.5172 51.6H53.5172C53.5172 45.685 55.4374 40.9082 59.2314 37.1142L56.403 34.2858ZM49.5172 51.6V53.4H53.5172V51.6H49.5172ZM49.5172 53.4C49.5172 56.5791 49.9413 59.5791 50.8056 62.3882L54.6287 61.2118C53.8931 58.8209 53.5172 56.2209 53.5172 53.4H49.5172ZM50.8056 62.3882C51.6593 65.1625 53.0266 68.1962 54.874 71.4805L58.3603 69.5195C56.6077 66.4037 55.3751 63.6375 54.6287 61.2118L50.8056 62.3882ZM54.9212 71.56C56.959 74.8205 59.4934 78.4683 62.5172 82.5L65.7172 80.1C62.741 76.1317 60.2754 72.5795 58.3132 69.44L54.9212 71.56ZM62.5172 82.5C65.5407 86.5314 69.3605 91.3558 73.9717 96.9695L77.0626 94.4305C72.4738 88.8441 68.6936 84.0686 65.7172 80.1L62.5172 82.5ZM73.9445 96.9356L93.7446 122.136L96.8898 119.664L77.0898 94.4643L73.9445 96.9356ZM93.6925 122.066L110.493 145.466L113.742 143.134L96.9418 119.734L93.6925 122.066ZM112.117 146.3H113.917V142.3H112.117V146.3ZM115.89 144.629C116.499 140.976 117.004 137.029 117.408 132.79L113.426 132.41C113.03 136.571 112.536 140.424 111.944 143.971L115.89 144.629ZM117.408 132.79C117.811 128.555 118.114 124.222 118.315 119.791L114.319 119.609C114.121 123.978 113.823 128.245 113.426 132.41L117.408 132.79ZM118.31 119.873C118.714 115.221 118.917 110.763 118.917 106.5H114.917C114.917 110.637 114.72 114.979 114.325 119.527L118.31 119.873ZM118.915 106.591C119.116 102.165 119.217 98.0346 119.217 94.2H115.217C115.217 97.9654 115.118 102.035 114.919 106.409L118.915 106.591ZM117.217 96.2L167.317 96.2V92.2L117.217 92.2V96.2ZM165.317 94.2V123.3H169.317V94.2H165.317ZM167.317 121.3H146.017V125.3H167.317V121.3ZM144.043 122.98C142.852 130.322 141.365 137.463 139.58 144.402L143.454 145.398C145.27 138.337 146.782 131.078 147.991 123.62L144.043 122.98ZM139.57 144.442C138.003 151.103 135.546 158.288 132.184 166.001L135.851 167.599C139.289 159.712 141.831 152.297 143.464 145.358L139.57 144.442ZM132.479 168.078L170.879 214.278L173.955 211.722L135.555 165.522L132.479 168.078ZM172.417 211H130.717V215H172.417V211ZM132.257 211.724L107.657 182.024L104.577 184.576L129.177 214.276L132.257 211.724ZM106.117 181.3H104.017V185.3H106.117V181.3ZM102.048 182.952C100.335 192.655 95.6109 200.297 87.8362 205.986L90.1982 209.214C98.8235 202.903 104.099 194.345 105.987 183.648L102.048 182.952ZM87.8172 206C80.2446 211.679 70.3984 214.6 58.1172 214.6V218.6C71.036 218.6 81.7898 215.521 90.2172 209.2L87.8172 206ZM67.7172 188.3C73.7762 188.3 79.3642 187.149 84.4505 184.818L82.7839 181.182C78.2702 183.251 73.2582 184.3 67.7172 184.3V188.3ZM84.4505 184.818C89.6783 182.422 93.8716 178.408 97.0496 172.899L93.5848 170.901C90.7628 175.792 87.1561 179.178 82.7839 181.182L84.4505 184.818ZM96.8806 170.653L54.2806 117.253L51.1537 119.747L93.7537 173.147L96.8806 170.653ZM51.456 116.948C44.856 122.31 40.2945 128.189 37.9394 134.611L41.6949 135.989C43.7399 130.411 47.7783 125.09 53.9784 120.052L51.456 116.948ZM37.9472 134.591C35.6559 140.631 34.5172 147.073 34.5172 153.9H38.5172C38.5172 147.527 39.5785 141.569 41.6872 136.009L37.9472 134.591ZM34.5172 153.9V155.4H38.5172V153.9H34.5172ZM34.5172 155.4C34.5172 165.78 37.4344 174.063 43.5289 179.94L46.3055 177.06C41.2 172.137 38.5172 165.02 38.5172 155.4H34.5172ZM43.5563 179.966C49.6144 185.591 57.7472 188.3 67.7172 188.3V184.3C58.4871 184.3 51.4199 181.809 46.2781 177.034L43.5563 179.966Z" fill="black" mask="url(#path-1-outside-1_344_186)"/>
</svg>
