<svg width="274" height="371" viewBox="0 0 274 371" fill="none" xmlns="http://www.w3.org/2000/svg">
<path fill-rule="evenodd" clip-rule="evenodd" d="M154.269 144.377L154.261 144.376C152.005 144.15 149.893 143.472 147.941 142.337L146.768 141.656L149.258 135.706L150.548 136.369C152.206 137.222 153.684 137.671 154.994 137.775C156.278 137.861 157.662 137.567 159.166 136.818C161.009 135.899 161.99 134.841 162.405 133.754C162.813 132.686 162.761 131.47 162.048 129.975C161.478 128.778 160.815 128.189 160.118 127.936L160.106 127.931L160.094 127.927C159.351 127.642 158.076 127.626 156.09 128.209L152.714 129.201L152.707 129.202C151.138 129.646 149.67 129.858 148.319 129.798L148.311 129.797L148.303 129.797C147.007 129.723 145.801 129.436 144.71 128.904L144.698 128.898L144.685 128.892C143.619 128.347 142.686 127.63 141.904 126.738L141.9 126.733L141.896 126.728C141.142 125.853 140.51 124.878 140.001 123.81C138.539 120.743 138.295 117.763 139.517 115.039C140.689 112.426 142.887 110.406 145.908 108.899C148.266 107.724 150.537 107.114 152.7 107.167C154.852 107.206 156.865 107.788 158.711 108.92L159.812 109.595L157.485 115.59L156.143 114.856C155.018 114.242 153.845 113.874 152.613 113.748C151.521 113.637 150.201 113.903 148.62 114.692C146.89 115.555 145.949 116.515 145.529 117.47C145.15 118.332 145.155 119.383 145.829 120.798C146.329 121.845 146.965 122.46 147.725 122.789C148.473 123.066 149.775 123.077 151.817 122.498L151.819 122.498L155.07 121.568C156.64 121.124 158.108 120.912 159.458 120.972C160.775 121.031 161.996 121.307 163.092 121.838C164.196 122.347 165.158 123.069 165.961 124.002C166.718 124.881 167.356 125.87 167.877 126.963C169.354 130.063 169.616 133.113 168.493 135.985C167.404 138.825 165.081 141.013 161.798 142.65C159.164 143.963 156.647 144.584 154.278 144.378L154.269 144.377ZM167.196 135.377C168.144 132.956 167.956 130.358 166.633 127.583C166.17 126.61 165.607 125.74 164.945 124.972C164.284 124.204 163.491 123.607 162.566 123.183C161.668 122.746 160.632 122.501 159.458 122.449C158.284 122.397 156.959 122.579 155.484 122.996L152.233 123.926C150.093 124.533 148.44 124.614 147.275 124.167C146.123 123.679 145.227 122.763 144.586 121.418C143.768 119.701 143.658 118.162 144.257 116.801C144.856 115.44 146.097 114.29 147.981 113.351C149.705 112.491 151.275 112.133 152.69 112.278C153.653 112.376 154.586 112.604 155.491 112.961C155.915 113.129 156.332 113.325 156.743 113.55L158.048 110.19C156.424 109.194 154.652 108.679 152.731 108.645C150.837 108.598 148.776 109.13 146.547 110.241C143.709 111.656 141.788 113.481 140.785 115.717C139.782 117.952 139.935 120.443 141.244 123.19C141.694 124.135 142.25 124.991 142.912 125.759C143.56 126.498 144.339 127.101 145.251 127.567C146.149 128.005 147.172 128.256 148.319 128.321C149.493 128.373 150.818 128.191 152.294 127.774L155.664 126.784C157.738 126.175 159.357 126.094 160.522 126.54C161.673 126.958 162.596 127.896 163.292 129.355C164.151 131.158 164.289 132.825 163.705 134.355C163.121 135.886 161.821 137.154 159.805 138.159C158.134 138.992 156.517 139.356 154.956 139.249C153.519 139.136 151.972 138.674 150.317 137.863C150.205 137.808 150.092 137.751 149.979 137.693L148.575 141.049C150.346 142.079 152.266 142.697 154.335 142.905C156.39 143.084 158.665 142.552 161.159 141.309C164.262 139.761 166.275 137.784 167.196 135.377Z" fill="black"/>
<path fill-rule="evenodd" clip-rule="evenodd" d="M132.012 156.865L126.182 159.771L110.624 127.13L121.975 121.47C124.774 120.075 127.501 119.743 130.041 120.773C132.55 121.791 134.478 123.91 135.889 126.87C137.16 129.537 137.605 132.143 137.036 134.607C136.612 136.441 135.65 137.989 134.24 139.269L147.867 148.959L141.228 152.269L128.367 142.852L125.915 144.074L132.012 156.865ZM128.45 141.151L141.311 150.568L145.051 148.703L131.79 139.273C132.231 138.994 132.636 138.7 133.005 138.391C134.413 137.214 135.303 135.817 135.676 134.201C136.148 132.159 135.804 129.922 134.645 127.49C133.349 124.772 131.664 122.992 129.588 122.15C127.512 121.308 125.188 121.529 122.614 122.812L112.507 127.851L126.786 157.81L130.129 156.143L124.032 143.353L128.45 141.151ZM127.488 126.929L127.464 126.921C126.768 126.683 125.867 126.727 124.667 127.326L119.226 130.039L123.184 138.344L128.626 135.631C129.836 135.028 130.436 134.335 130.689 133.647C130.946 132.944 130.921 132.102 130.392 130.992L129.328 128.76C128.798 127.648 128.178 127.137 127.512 126.936L127.488 126.929ZM131.996 134.229C131.582 135.357 130.671 136.271 129.265 136.972L122.58 140.306L117.343 129.318L124.028 125.985C125.434 125.283 126.706 125.127 127.843 125.516C128.994 125.864 129.903 126.738 130.572 128.14L131.635 130.372C132.304 131.774 132.424 133.06 131.996 134.229Z" fill="black"/>
<path fill-rule="evenodd" clip-rule="evenodd" d="M116.207 164.745L109.788 157.375L101.895 161.31L103.619 171.022L97.5463 174.05L91.2665 136.782L97.5223 133.663L122.359 161.678L116.207 164.745ZM100.328 160.432L110.077 155.571L116.496 162.941L120.037 161.175L97.2422 135.463L92.8252 137.665L98.5889 171.87L102.051 170.144L100.328 160.432ZM96.6356 140.493L96.9937 140.314L107.788 152.834L99.6301 156.902L96.6356 140.493ZM98.7875 144.543L100.647 154.734L105.492 152.319L98.7875 144.543Z" fill="black"/>
<path fill-rule="evenodd" clip-rule="evenodd" d="M65.9122 157.831L65.5938 157.989L77.2751 182.497L74.2111 184.025L59.9317 154.066L64.2293 151.923L75.4248 162.702L75.6635 162.583L74.2571 146.923L78.3956 144.86L92.675 174.818L89.6109 176.346L77.9297 151.838L77.6113 151.997L79.106 170.322L65.9122 157.831ZM79.5348 158.435L89.0067 178.308L94.5578 175.54L78.9998 142.898L72.7754 146.002L73.9741 159.349L64.4324 150.162L58.0488 153.345L73.6068 185.986L79.1579 183.218L69.6861 163.346L80.7931 173.862L79.5348 158.435Z" fill="black"/>
<rect x="1.31442" y="0.484452" width="71.7097" height="102.09" transform="matrix(0.904034 -0.42746 0.410387 0.911911 98.8297 189.995)" fill="white" stroke="black" stroke-width="2"/>
<path d="M155.048 199.703C154.966 197.703 157.547 196.836 158.689 198.48L162.08 203.364C162.587 204.095 163.516 204.402 164.359 204.119L169.862 202.271C171.648 201.672 173.196 203.647 172.188 205.238L168.696 210.748C168.265 211.427 168.283 212.299 168.742 212.959L172.505 218.38C173.624 219.99 171.998 222.08 170.162 221.393L165.043 219.478C164.157 219.147 163.16 219.482 162.653 220.281L159.727 224.897C158.677 226.553 156.12 225.867 156.039 223.908L155.769 217.315C155.736 216.511 155.225 215.806 154.472 215.524L148.362 213.238C146.598 212.578 146.641 210.068 148.426 209.469L153.929 207.621C154.773 207.338 155.328 206.532 155.291 205.643L155.048 199.703Z" fill="white"/>
<path d="M41.6729 150.462L160.848 91.8919" stroke="black" stroke-width="2"/>
<path d="M149.671 71.6771C139.634 62.6899 122.733 72.4059 111.92 81.3326C108.046 84.5313 104.024 87.5727 99.569 89.8514L78.605 100.574C70.9765 104.476 62.1303 105.603 54.277 109.004C49.8855 110.906 45.3923 114.098 42.0836 119.253C33.2552 133.009 31.2467 136.421 30.2108 155.728C29.175 175.036 44.9356 191.714 62.6301 218.73C76.7858 240.342 86.8221 257.524 90.0709 263.413C97.0066 280.531 112.711 318.063 120.043 331.243C129.207 347.718 136.578 346.035 138.613 344.994C140.648 343.953 144.019 340.44 149.465 339.443C153.527 338.7 182.345 326.606 199.096 319.437C201.397 318.452 203.612 317.285 205.735 315.946L237.639 295.827C245.202 291.057 253.729 283.837 254.704 274.886C256.355 259.735 234.492 225.91 231.553 227.413C229.201 228.616 209.575 179.836 200.055 155.296L190.864 136.45C185.889 125.284 174.541 99.8512 168.946 87.4519C161.953 71.9529 164.714 85.1456 149.671 71.6771Z" stroke="black" stroke-width="2"/>
<path d="M61.9369 48.5923L59.7041 49.7343C48.447 55.492 38.3156 73.7104 43.7766 85.1163C48.2436 94.4462 55.5371 89.572 64.807 84.9908C80.6385 77.1669 100.028 67.3737 105.926 63.6491C109.713 61.2577 107.227 56.7335 102.413 51.9401C91.8602 41.4313 75.2747 41.7704 61.9369 48.5923Z" stroke="black" stroke-width="2"/>
<path d="M59.5908 88.5404L62.2314 93.955C62.9576 95.4442 64.7422 96.0398 66.2173 95.2853L97.0107 79.5354C98.3143 78.8687 98.9641 77.3494 98.5483 75.9408L96.6695 69.5758" stroke="black" stroke-width="2"/>
<path d="M72.3705 92.7342L71.9392 99.2238C71.7847 101.549 74.1669 103.142 76.2245 102.089L96.1236 91.9116C98.1813 90.8592 98.3688 87.9519 96.461 86.6817L91.1359 83.1363" stroke="black" stroke-width="2"/>
<path d="M41.7414 149.831C57.8878 187.574 95.3211 271.399 116.787 304.294C138.159 337.045 189.163 310.599 212.307 293.071C212.515 292.913 212.689 292.741 212.849 292.534C220.889 282.119 235.022 258.374 229.011 244.212C222.996 230.043 202.115 180.31 192.152 156.56C191.967 156.118 191.686 155.744 191.32 155.44L182.961 148.484C182.284 147.921 181.891 147.08 181.886 146.187L181.802 129.466C181.8 129.07 181.725 128.688 181.573 128.325C176.104 115.22 164.627 90.4296 160.697 91.9692" stroke="black" stroke-width="2"/>
<path d="M174 87L235 223" stroke="black" stroke-width="2"/>
<path d="M101 190L144.5 197.5L135.5 216L168.5 234L142.5 282" stroke="black" stroke-width="2"/>
</svg>
