<svg width="81" height="21" viewBox="0 0 81 21" fill="none" xmlns="http://www.w3.org/2000/svg">
<mask id="path-1-outside-1_344_189" maskUnits="userSpaceOnUse" x="-2" y="-2" width="86" height="26" fill="black">
<rect fill="white" x="-2" y="-2" width="86" height="26"/>
<path d="M7.28687 20.6L3.12687 17.84L7.68687 11.84L0.846874 9.52L2.40687 4.92L9.08687 7.36V0.279999H14.2069V7.36L20.8869 4.92L22.4469 9.52L15.6069 11.84L20.1669 17.84L16.0069 20.6L11.6469 14.64L7.28687 20.6ZM36.4712 20.6L32.3112 17.84L36.8712 11.84L30.0312 9.52L31.5912 4.92L38.2712 7.36V0.279999H43.3913V7.36L50.0712 4.92L51.6313 9.52L44.7912 11.84L49.3512 17.84L45.1912 20.6L40.8312 14.64L36.4712 20.6ZM65.6556 20.6L61.4956 17.84L66.0556 11.84L59.2156 9.52L60.7756 4.92L67.4556 7.36V0.279999H72.5756V7.36L79.2556 4.92L80.8156 9.52L73.9756 11.84L78.5356 17.84L74.3756 20.6L70.0156 14.64L65.6556 20.6Z"/>
</mask>
<path d="M7.28687 20.6L3.12687 17.84L7.68687 11.84L0.846874 9.52L2.40687 4.92L9.08687 7.36V0.279999H14.2069V7.36L20.8869 4.92L22.4469 9.52L15.6069 11.84L20.1669 17.84L16.0069 20.6L11.6469 14.64L7.28687 20.6ZM36.4712 20.6L32.3112 17.84L36.8712 11.84L30.0312 9.52L31.5912 4.92L38.2712 7.36V0.279999H43.3913V7.36L50.0712 4.92L51.6313 9.52L44.7912 11.84L49.3512 17.84L45.1912 20.6L40.8312 14.64L36.4712 20.6ZM65.6556 20.6L61.4956 17.84L66.0556 11.84L59.2156 9.52L60.7756 4.92L67.4556 7.36V0.279999H72.5756V7.36L79.2556 4.92L80.8156 9.52L73.9756 11.84L78.5356 17.84L74.3756 20.6L70.0156 14.64L65.6556 20.6Z" fill="#FF4218"/>
<path d="M7.28687 20.6L6.18117 22.2666L7.7731 23.3227L8.90106 21.7808L7.28687 20.6ZM3.12687 17.84L1.53455 16.6298L0.244227 18.3276L2.02117 19.5066L3.12687 17.84ZM7.68687 11.84L9.2792 13.0502L10.9602 10.8383L8.32929 9.94598L7.68687 11.84ZM0.846874 9.52L-1.04717 8.87767L-1.68947 10.7716L0.204458 11.414L0.846874 9.52ZM2.40687 4.92L3.09307 3.0414L1.17027 2.33906L0.512827 4.27767L2.40687 4.92ZM9.08687 7.36L8.40068 9.2386L11.0869 10.2198V7.36H9.08687ZM9.08687 0.279999V-1.72H7.08687V0.279999H9.08687ZM14.2069 0.279999H16.2069V-1.72H14.2069V0.279999ZM14.2069 7.36H12.2069V10.2198L14.8931 9.2386L14.2069 7.36ZM20.8869 4.92L22.7809 4.27767L22.1235 2.33906L20.2007 3.0414L20.8869 4.92ZM22.4469 9.52L23.0893 11.414L24.9832 10.7716L24.3409 8.87767L22.4469 9.52ZM15.6069 11.84L14.9645 9.94598L12.3336 10.8383L14.0146 13.0502L15.6069 11.84ZM20.1669 17.84L21.2726 19.5066L23.0495 18.3276L21.7592 16.6298L20.1669 17.84ZM16.0069 20.6L14.3927 21.7808L15.5207 23.3227L17.1126 22.2666L16.0069 20.6ZM11.6469 14.64L13.2611 13.4592L11.6469 11.2526L10.0327 13.4592L11.6469 14.64ZM8.39257 18.9334L4.23257 16.1734L2.02117 19.5066L6.18117 22.2666L8.39257 18.9334ZM4.7192 19.0502L9.2792 13.0502L6.09455 10.6298L1.53455 16.6298L4.7192 19.0502ZM8.32929 9.94598L1.48929 7.62598L0.204458 11.414L7.04446 13.734L8.32929 9.94598ZM2.74092 10.1623L4.30092 5.56233L0.512827 4.27767L-1.04717 8.87767L2.74092 10.1623ZM1.72068 6.7986L8.40068 9.2386L9.77307 5.4814L3.09307 3.0414L1.72068 6.7986ZM11.0869 7.36V0.279999H7.08687V7.36H11.0869ZM9.08687 2.28H14.2069V-1.72H9.08687V2.28ZM12.2069 0.279999V7.36H16.2069V0.279999H12.2069ZM14.8931 9.2386L21.5731 6.7986L20.2007 3.0414L13.5207 5.4814L14.8931 9.2386ZM18.9928 5.56233L20.5528 10.1623L24.3409 8.87767L22.7809 4.27767L18.9928 5.56233ZM21.8045 7.62598L14.9645 9.94598L16.2493 13.734L23.0893 11.414L21.8045 7.62598ZM14.0146 13.0502L18.5745 19.0502L21.7592 16.6298L17.1992 10.6298L14.0146 13.0502ZM19.0612 16.1734L14.9012 18.9334L17.1126 22.2666L21.2726 19.5066L19.0612 16.1734ZM17.6211 19.4192L13.2611 13.4592L10.0327 15.8208L14.3927 21.7808L17.6211 19.4192ZM10.0327 13.4592L5.67269 19.4192L8.90106 21.7808L13.2611 15.8208L10.0327 13.4592ZM36.4712 20.6L35.3656 22.2666L36.9575 23.3227L38.0854 21.7808L36.4712 20.6ZM32.3112 17.84L30.7189 16.6298L29.4286 18.3276L31.2056 19.5066L32.3112 17.84ZM36.8713 11.84L38.4636 13.0502L40.1446 10.8383L37.5137 9.94598L36.8713 11.84ZM30.0312 9.52L28.1372 8.87767L27.4949 10.7716L29.3888 11.414L30.0312 9.52ZM31.5912 4.92L32.2774 3.0414L30.3546 2.33906L29.6972 4.27767L31.5912 4.92ZM38.2713 7.36L37.5851 9.2386L40.2713 10.2198V7.36H38.2713ZM38.2713 0.279999V-1.72H36.2713V0.279999H38.2713ZM43.3913 0.279999H45.3913V-1.72H43.3913V0.279999ZM43.3913 7.36H41.3913V10.2198L44.0774 9.2386L43.3913 7.36ZM50.0713 4.92L51.9653 4.27767L51.3079 2.33906L49.3851 3.0414L50.0713 4.92ZM51.6313 9.52L52.2737 11.414L54.1676 10.7716L53.5253 8.87767L51.6313 9.52ZM44.7912 11.84L44.1488 9.94598L41.5179 10.8383L43.1989 13.0502L44.7912 11.84ZM49.3512 17.84L50.457 19.5066L52.2339 18.3276L50.9436 16.6298L49.3512 17.84ZM45.1912 20.6L43.5771 21.7808L44.705 23.3227L46.2969 22.2666L45.1912 20.6ZM40.8312 14.64L42.4454 13.4592L40.8312 11.2526L39.2171 13.4592L40.8312 14.64ZM37.577 18.9334L33.417 16.1734L31.2056 19.5066L35.3656 22.2666L37.577 18.9334ZM33.9036 19.0502L38.4636 13.0502L35.2789 10.6298L30.7189 16.6298L33.9036 19.0502ZM37.5137 9.94598L30.6737 7.62598L29.3888 11.414L36.2288 13.734L37.5137 9.94598ZM31.9253 10.1623L33.4853 5.56233L29.6972 4.27767L28.1372 8.87767L31.9253 10.1623ZM30.9051 6.7986L37.5851 9.2386L38.9574 5.4814L32.2774 3.0414L30.9051 6.7986ZM40.2713 7.36V0.279999H36.2713V7.36H40.2713ZM38.2713 2.28H43.3913V-1.72H38.2713V2.28ZM41.3913 0.279999V7.36H45.3913V0.279999H41.3913ZM44.0774 9.2386L50.7574 6.7986L49.3851 3.0414L42.7051 5.4814L44.0774 9.2386ZM48.1772 5.56233L49.7372 10.1623L53.5253 8.87767L51.9653 4.27767L48.1772 5.56233ZM50.9888 7.62598L44.1488 9.94598L45.4337 13.734L52.2737 11.414L50.9888 7.62598ZM43.1989 13.0502L47.7589 19.0502L50.9436 16.6298L46.3836 10.6298L43.1989 13.0502ZM48.2455 16.1734L44.0855 18.9334L46.2969 22.2666L50.457 19.5066L48.2455 16.1734ZM46.8054 19.4192L42.4454 13.4592L39.2171 15.8208L43.5771 21.7808L46.8054 19.4192ZM39.2171 13.4592L34.8571 19.4192L38.0854 21.7808L42.4454 15.8208L39.2171 13.4592ZM65.6556 20.6L64.5499 22.2666L66.1418 23.3227L67.2698 21.7808L65.6556 20.6ZM61.4956 17.84L59.9033 16.6298L58.613 18.3276L60.3899 19.5066L61.4956 17.84ZM66.0556 11.84L67.6479 13.0502L69.3289 10.8383L66.698 9.94598L66.0556 11.84ZM59.2156 9.52L57.3216 8.87767L56.6793 10.7716L58.5732 11.414L59.2156 9.52ZM60.7756 4.92L61.4618 3.0414L59.539 2.33906L58.8816 4.27767L60.7756 4.92ZM67.4556 7.36L66.7694 9.2386L69.4556 10.2198V7.36H67.4556ZM67.4556 0.279999V-1.72H65.4556V0.279999H67.4556ZM72.5756 0.279999H74.5756V-1.72H72.5756V0.279999ZM72.5756 7.36H70.5756V10.2198L73.2618 9.2386L72.5756 7.36ZM79.2556 4.92L81.1497 4.27767L80.4922 2.33906L78.5694 3.0414L79.2556 4.92ZM80.8156 9.52L81.458 11.414L83.352 10.7716L82.7097 8.87767L80.8156 9.52ZM73.9756 11.84L73.3332 9.94598L70.7023 10.8383L72.3833 13.0502L73.9756 11.84ZM78.5356 17.84L79.6413 19.5066L81.4183 18.3276L80.128 16.6298L78.5356 17.84ZM74.3756 20.6L72.7614 21.7808L73.8894 23.3227L75.4813 22.2666L74.3756 20.6ZM70.0156 14.64L71.6298 13.4592L70.0156 11.2526L68.4014 13.4592L70.0156 14.64ZM66.7613 18.9334L62.6013 16.1734L60.3899 19.5066L64.5499 22.2666L66.7613 18.9334ZM63.088 19.0502L67.6479 13.0502L64.4633 10.6298L59.9033 16.6298L63.088 19.0502ZM66.698 9.94598L59.858 7.62598L58.5732 11.414L65.4132 13.734L66.698 9.94598ZM61.1097 10.1623L62.6697 5.56233L58.8816 4.27767L57.3216 8.87767L61.1097 10.1623ZM60.0894 6.7986L66.7694 9.2386L68.1418 5.4814L61.4618 3.0414L60.0894 6.7986ZM69.4556 7.36V0.279999H65.4556V7.36H69.4556ZM67.4556 2.28H72.5756V-1.72H67.4556V2.28ZM70.5756 0.279999V7.36H74.5756V0.279999H70.5756ZM73.2618 9.2386L79.9418 6.7986L78.5694 3.0414L71.8894 5.4814L73.2618 9.2386ZM77.3616 5.56233L78.9216 10.1623L82.7097 8.87767L81.1497 4.27767L77.3616 5.56233ZM80.1732 7.62598L73.3332 9.94598L74.618 13.734L81.458 11.414L80.1732 7.62598ZM72.3833 13.0502L76.9433 19.0502L80.128 16.6298L75.5679 10.6298L72.3833 13.0502ZM77.4299 16.1734L73.2699 18.9334L75.4813 22.2666L79.6413 19.5066L77.4299 16.1734ZM75.9898 19.4192L71.6298 13.4592L68.4014 15.8208L72.7614 21.7808L75.9898 19.4192ZM68.4014 13.4592L64.0414 19.4192L67.2698 21.7808L71.6298 15.8208L68.4014 13.4592Z" fill="black" mask="url(#path-1-outside-1_344_189)"/>
</svg>
