<svg width="284" height="270" viewBox="0 0 284 270" fill="none" xmlns="http://www.w3.org/2000/svg">
<path d="M258 78.5C261.333 80 268.1 83.2 268.5 84C269 85 287.5 111.5 280.5 131.5" stroke="white" stroke-width="2"/>
<path d="M271 114.5C273 112 275.9 106.3 271.5 103.5C266 100 278 95.5 264 92" stroke="white" stroke-width="2"/>
<path d="M271.725 136.379C271.725 209.64 213.36 269 141.398 269C69.4372 269 11.0718 209.64 11.0718 136.379C11.0718 63.1182 69.4372 3.75818 141.398 3.75818C213.36 3.75818 271.725 63.1182 271.725 136.379Z" stroke="black" stroke-width="2"/>
<path d="M196.558 73.9641C196.558 78.0527 193.589 81.96 188.338 84.9022C183.12 87.8265 175.843 89.6667 167.75 89.6667C159.657 89.6667 152.38 87.8265 147.162 84.9022C141.911 81.96 138.942 78.0527 138.942 73.9641C138.942 69.8755 141.911 65.9682 147.162 63.0259C152.38 60.1016 159.657 58.2615 167.75 58.2615C175.843 58.2615 183.12 60.1016 188.338 63.0259C193.589 65.9682 196.558 69.8755 196.558 73.9641Z" stroke="black" stroke-width="2"/>
<path d="M59.3193 128.028C59.8953 128.907 61.7385 130.138 64.5033 128.028C67.9592 125.39 66.6633 124.511 69.6872 122.314C72.7112 120.116 73.1432 116.16 75.7352 119.237C78.3271 122.314 71.8472 127.588 81.3511 124.072C90.855 120.555 83.0791 117.479 93.447 117.918C103.815 118.358 109.431 117.039 107.703 123.632C105.975 130.225 102.951 132.423 105.543 135.5C108.135 138.577 109.863 138.137 110.727 140.774C111.591 143.412 108.999 146.488 107.703 147.807C106.407 149.126 104.247 147.807 102.087 150.884C99.9269 153.961 107.703 154.4 99.4949 160.554C91.287 166.707 93.015 167.147 88.695 166.707C84.3751 166.268 83.9431 166.268 82.6471 165.389C82.6078 165.362 82.5688 165.335 82.5301 165.309C81.1772 164.372 79.5104 163.851 77.9053 164.214V164.214C77.0512 164.408 76.1603 164.361 75.331 164.08L74.0072 163.631" stroke="black" stroke-width="2"/>
<path d="M130.599 90.6666C128.991 89.8487 127.28 86.3362 126.189 83.5698C125.668 82.2493 124.596 81.2046 123.23 80.8186L122.773 80.6896C120.229 79.9704 119.094 76.9717 120.663 74.843C121.959 73.0849 120.231 70.8872 117.639 68.6894C115.339 66.739 113.378 65.4809 120.214 58.4628C122.18 56.4445 124.377 54.5866 126.926 53.3874C131.722 51.1316 129.644 55.1454 133.623 53.3055C138.375 51.1077 136.647 51.5473 140.967 47.5914C145.287 43.6355 145.287 45.3937 150.471 45.3937C150.792 45.3937 151.109 45.3831 151.42 45.3632C156.764 45.0214 161.971 42.6033 167.318 42.3169C169.046 42.4634 173.366 43.2839 176.822 45.3937C181.142 48.0309 180.71 45.3937 182.438 45.3937C184.166 45.3937 184.598 42.7564 188.486 42.7564C193.284 42.7564 197.945 45.266 199.663 49.7458C199.962 50.5272 200.15 51.1688 200.15 51.5473C200.15 54.0637 201.225 56.4603 203.105 58.1336L206.03 60.738C206.717 61.3496 207.341 62.0231 207.758 62.843C209 65.2876 211.575 71.4776 215.702 84.0734C220.886 94.6224 214.406 90.6666 210.518 94.1829C206.63 97.6992 202.31 96.8202 196.262 98.5783C190.214 100.336 189.35 99.4574 180.71 106.93C175.958 111.325 172.502 108.688 168.614 110.886C164.726 113.083 160.838 110.886 150.471 108.688C140.103 106.49 142.695 105.171 140.967 102.534C139.239 99.8969 140.103 96.3806 138.375 94.1829C136.647 91.9852 133.191 91.9852 130.599 90.6666Z" stroke="black" stroke-width="2"/>
<path d="M169.91 115.721C170.342 114.988 171.552 113.523 172.934 113.523C174.662 113.523 175.526 115.281 178.118 114.402C180.71 113.523 182.006 113.523 182.438 113.523C182.87 113.523 182.87 111.765 183.734 111.325C183.896 111.215 184.051 111.107 184.199 111.001C186.881 109.086 189.511 106.49 192.806 106.49V106.49C195.398 106.49 195.398 105.611 197.126 105.611C198.854 105.611 203.174 101.655 204.902 101.216C206.63 100.776 206.63 100.337 209.654 99.897C212.678 99.4574 206.63 105.611 214.406 99.897C222.182 94.1829 223.478 95.062 222.614 90.6666C221.75 86.2711 222.614 88.4689 219.59 84.0734C216.566 79.678 216.134 74.843 216.134 73.5244C216.134 72.2058 216.134 73.0849 216.134 69.5685C216.134 66.0522 216.998 64.7336 215.27 62.5359C213.542 60.3381 214.838 59.4591 212.246 57.7009C211.374 57.1099 210.219 56.2914 209.054 55.4539C206.322 53.4906 203.976 50.8578 203.174 47.5914V47.5914C202.742 45.8332 202.31 44.5146 201.878 44.0751" stroke="black" stroke-width="2"/>
<path d="M118.935 53.7453C120.087 52.5732 122.563 50.229 123.255 50.229C124.119 50.229 126.278 51.108 127.574 50.229C128.87 49.3499 132.326 48.9103 132.758 48.0312V48.0312C133.821 45.8681 135.689 44.0932 137.082 42.1261C137.336 41.7674 137.622 41.39 137.942 40.9986C140.102 38.3613 138.374 38.3613 140.966 37.4822C143.558 36.6031 143.99 35.7241 145.718 36.6031C147.446 37.4822 146.582 37.9217 148.742 38.8008C150.902 39.6799 148.742 39.6799 152.63 39.6799C156.518 39.6799 156.518 40.559 158.678 39.6799C166.022 36.6031 166.454 36.6031 167.75 36.6031V36.6031C171.001 36.6031 173.56 39.4975 176.602 40.6454C177.169 40.8594 177.579 40.9986 177.686 40.9986C178.118 40.9986 177.254 43.1963 178.55 42.7567C179.086 42.5749 179.876 41.6017 180.634 40.4814C181.724 38.8698 183.824 38.1875 185.558 39.0697V39.0697C186.332 39.463 187.221 39.562 188.062 39.3481L190.214 38.8008" stroke="black" stroke-width="2"/>
<path d="M74.4395 168.026L74.4395 179.894" stroke="black" stroke-width="2"/>
<path d="M78.7593 168.466L78.7593 184.729" stroke="black" stroke-width="2"/>
<path d="M82.2153 171.542L82.2153 181.652" stroke="black" stroke-width="2"/>
<path d="M62.3432 157.477C62.3432 158.356 60.6152 159.675 62.3432 160.993C64.0712 162.312 65.7991 163.631 67.5271 162.312C69.2551 160.993 69.6871 160.114 71.8471 158.356C74.0071 156.598 71.4151 154.84 76.599 156.158C81.783 157.477 81.783 157.037 82.647 158.796C83.511 160.554 83.511 161.433 85.6709 161.433C87.8309 161.433 86.5349 162.312 88.6949 160.993C90.8549 159.675 91.7189 161.872 92.1509 158.796C92.5829 155.719 95.1748 157.477 92.1509 154.84C89.7317 152.73 89.5589 149.565 86.9669 151.763C88.2629 150.444 90.9413 147.631 91.2869 146.928C91.7189 146.049 93.0149 146.488 91.2869 145.17C89.5589 143.851 90.4229 143.851 88.6949 142.972C86.9669 142.093 86.1029 141.214 84.375 141.214C82.647 141.214 79.191 140.335 79.191 142.093C79.191 143.851 78.759 146.488 80.055 146.928" stroke="black" stroke-width="2"/>
<path d="M185.462 156.598C197.717 151.292 203.857 151.491 206.443 152.852C207.731 153.53 207.926 155.142 207.926 156.598C207.926 160.009 209.371 163.597 208.706 166.942C208.559 167.681 208.31 168.485 207.926 169.345C205.766 174.18 205.766 171.103 197.558 179.015C192.827 183.575 193.693 183.608 197.178 183.744L197.193 183.745C204.465 184.028 212.04 186.811 218.652 183.771C221.038 182.674 223.562 181.126 226.502 179.015C230.164 176.384 232 175.831 234.046 178.118C242.011 187.023 239.249 199.877 228.814 205.695C226.153 207.179 222.971 208.946 219.158 211.101C199.718 222.09 207.926 217.694 191.51 229.562C175.094 241.43 175.094 230.441 162.998 229.562C150.902 228.683 159.542 225.167 162.998 220.771C166.454 216.376 174.23 215.497 201.446 207.145C228.662 198.794 199.286 203.19 191.51 200.113C183.734 197.036 169.478 190.443 159.542 179.015C149.606 167.587 165.158 165.389 185.462 156.598Z" stroke="black" stroke-width="2"/>
<path d="M155.222 166.707C155.942 165.389 157.728 162.664 159.11 162.312C160.838 161.872 160.406 162.312 163.862 160.993C167.318 159.675 170.342 157.477 173.798 157.038C177.254 156.598 182.87 154.4 184.166 153.521C185.462 152.642 187.19 150.884 188.918 150.005C190.646 149.126 191.942 147.368 194.534 147.368C197.126 147.368 198.854 147.368 201.878 147.368C204.902 147.368 205.334 148.247 207.926 147.368C210.518 146.489 216.998 142.533 213.974 148.686C210.95 154.84 210.086 155.279 210.518 156.158V156.158C211.81 158.789 216.117 159.011 217.239 161.718C217.484 162.309 217.291 162.892 216.566 163.631C215.65 164.562 214.977 164.753 214.546 165.054C213.558 165.745 213.72 167.278 213.223 168.377C212.749 169.422 212.32 170.357 211.947 171.162C211.113 172.959 207.926 173.517 207.926 175.498V175.498C207.926 176.905 210.518 179.015 207.926 179.015L213.974 179.015V179.015C215.677 179.015 217.362 178.621 218.859 177.808C219.816 177.289 220.775 176.745 221.317 176.377C222.613 175.498 221.317 175.498 223.045 174.18C224.773 172.861 230.821 169.784 233.413 170.224C236.005 170.663 237.733 169.784 237.733 171.982C237.733 174.18 237.733 173.74 237.733 175.498C237.733 177.256 236.437 176.817 237.733 179.015C239.029 181.212 240.325 180.333 240.757 182.531C241.189 184.729 242.053 184.729 242.053 186.926C242.053 189.124 243.349 190.003 243.781 190.882C244.213 191.761 243.781 192.201 243.781 193.52C243.781 194.838 243.349 195.717 242.053 197.036C241.016 198.091 239.605 199.82 239.029 200.552" stroke="black" stroke-width="2"/>
<path d="M74.0071 22.098L74.0071 18.6548C74.0071 16.5625 73.6848 13.7244 75.735 13.3072V13.3072C77.895 12.8676 78.327 11.9886 80.487 10.2304C82.647 8.47222 82.647 8.91176 84.3749 7.15359C86.1029 5.39542 81.351 3.63725 88.2629 3.63725C95.1748 3.63725 96.4708 3.63725 99.4948 3.63725C102.519 3.63725 102.519 3.63725 105.975 3.63725C109.431 3.63725 108.999 4.51634 112.023 2.75817C115.047 1 112.887 1 116.775 1C120.663 1 121.095 1 122.391 1.87908C123.427 2.58235 125.127 3.93028 125.847 4.51634" stroke="black" stroke-width="2"/>
<path d="M258.037 77.4803C259.364 76.5802 261.031 77.8692 262.342 79.3416C263.975 81.1761 265.217 83.3975 267.246 84.7825C267.878 85.2142 268.567 85.5935 269.269 85.8317C271.861 86.7107 274.021 85.8317 275.317 88.4689C276.613 91.1062 278.773 93.7434 278.773 96.3807C278.773 99.0179 278.773 98.5784 278.773 102.534C278.773 106.49 280.069 107.369 280.069 110.006C280.069 112.644 280.069 113.523 280.069 116.6C280.069 119.676 280.069 119.676 280.069 123.632C280.069 127.588 280.069 128.028 280.069 131.984C280.069 135.939 280.069 135.939 280.069 139.895C280.069 143.851 280.069 148.686 277.045 150.884C274.626 152.642 271.141 156.012 270.133 157.038" stroke="black" stroke-width="2"/>
<path d="M262.789 88.4689C264.517 89.4945 268.146 91.7215 268.837 92.4248C269.701 93.3038 270.133 93.3038 270.997 95.5016C271.861 97.6993 271.861 97.6993 271.861 99.897C271.861 102.095 270.565 101.216 271.861 103.853C273.157 106.49 273.589 105.171 273.589 108.248C273.589 111.325 273.589 111.765 273.589 113.083C273.589 114.138 271.285 115.574 270.133 116.16" stroke="black" stroke-width="2"/>
<path d="M55.8633 48.031C58.4552 48.7636 63.9848 50.932 65.3672 53.7451C67.0951 57.2614 59.7512 67.3709 57.1592 70.8872C54.5673 74.4036 51.5433 75.7222 53.7033 77.9199C55.8633 80.1176 57.5912 78.799 61.4792 80.5571C65.3672 82.3153 69.2551 83.6339 65.3672 86.7107C61.4792 89.7875 64.0712 90.6666 57.1592 91.1062C50.2473 91.5457 50.6793 91.1062 46.7914 91.1062C42.9034 91.1062 42.9034 92.4248 40.7434 88.9085C39.9928 87.6864 39.3236 86.5308 38.7714 85.5423C37.7902 83.7859 38.0035 80.5571 35.9915 80.5571V80.5571C34.98 80.5571 33.9192 80.5571 33.069 80.5571C32.1864 80.5571 31.353 80.9622 30.8075 81.656V81.656C30.262 82.3498 29.4283 82.7549 28.5457 82.7549L25.1916 82.7549L22.5996 82.7549" stroke="black" stroke-width="2"/>
<path d="M24.7598 77.4803L28.3777 77.4803C29.3982 77.4803 30.3952 77.1741 31.2397 76.6012V76.6012C32.0842 76.0284 33.0804 75.7221 34.1009 75.7221C34.4917 75.7221 34.9722 75.7221 35.5597 75.7221C36.5036 75.7221 37.237 75.7221 37.8257 75.7756C39.9431 75.9679 40.4384 78.5649 41.128 80.5761C41.1981 80.7808 41.2696 80.9781 41.3421 81.1681C42.5566 84.352 45.9758 85.3921 49.3835 85.3921V85.3921C51.4571 85.3921 55.1434 85.3921 56.7274 85.3921V85.3921C57.2719 85.3921 57.4475 84.6596 56.9622 84.4127L49.8487 80.7938C49.5421 80.6378 49.272 80.4185 49.0564 80.1504L46.213 76.6143C45.7487 76.0369 45.4955 75.3182 45.4955 74.5773V74.5773C45.4955 72.782 46.9512 71.3267 48.7465 71.3267C48.9814 71.3267 49.1977 71.3267 49.3835 71.3267C49.9316 71.3267 50.8257 70.5897 51.6958 69.7002C53.0912 68.2735 53.7035 66.2896 53.7035 64.294V64.294C53.7035 62.9754 53.7035 62.0963 51.5435 62.0963C49.8155 62.0963 46.7915 64.4405 45.4955 65.6127" stroke="black" stroke-width="2"/>
<path d="M11.3679 150.884C8.19992 152.203 1 155.807 1 157.917C1 160.554 2.72798 161.872 3.15998 165.389C3.59197 168.905 1 172.421 3.15998 177.696C5.31995 182.971 6.18395 184.289 6.18395 189.564C6.18395 194.838 6.18395 197.036 6.18395 199.673V199.673C6.18395 205.544 12.8855 209.426 15.6417 214.609C18.1649 219.355 17.4168 220.834 21.7358 222.09C25.3656 223.145 28.0877 222.947 29.6467 222.534C30.4361 222.326 31.2378 222.09 32.0542 222.09V222.09C33.6911 222.09 35.1857 222.97 36.1425 224.298C39.1677 228.497 44.1517 233.139 47.6555 228.683" stroke="black" stroke-width="2"/>
<path d="M15.6876 171.982C15.6876 171.982 13.9597 172.421 13.9597 177.696C13.9596 182.97 13.0957 183.41 14.8236 188.245C16.5516 193.08 15.6876 193.959 17.4156 196.596C19.1436 199.234 21.3036 200.992 21.7356 201.871C22.1676 202.75 22.5996 203.629 23.4635 202.75C24.1547 202.047 25.7675 200.406 26.4875 199.673" stroke="black" stroke-width="2"/>
<path d="M67.5273 241.869C73.4313 244.946 85.5847 251.363 86.9671 252.418C88.6951 253.737 147.014 278.791 189.782 253.737C232.55 228.683 155.654 253.737 153.494 253.737C151.334 253.737 138.807 255.495 134.055 255.495C131.847 255.495 129.338 254.803 127.255 254.022C124.992 253.173 123.16 253.04 120.921 253.952V253.952C117.092 255.512 120.9 243.744 124.977 244.439C130.961 245.46 145.941 250.739 153.494 248.462C165.158 244.946 161.27 237.474 150.902 239.672C140.535 241.869 129.735 244.067 134.055 241.869" stroke="black" stroke-width="2"/>
<path d="M155 45.5001L179.5 47.5001C184.167 44.1667 195.1 40.9001 201.5 54.5001C209.5 71.5001 234 86 220 91C206 96 197.5 90 178 108.5C162.4 123.3 163.833 116.667 166.5 111.5C163.667 111 157.4 110 155 110" stroke="white" stroke-width="2"/>
<path d="M154.5 87.9999C173.667 78.3332 200.5 59.1999 154.5 59.9999" stroke="white" stroke-width="2"/>
<path d="M154 4.00002C219.845 10.2626 266.542 68.2711 272 132" stroke="white" stroke-width="2"/>
</svg>
