<svg width="199" height="345" viewBox="0 0 199 345" fill="none" xmlns="http://www.w3.org/2000/svg">
<path d="M187.526 174.124C187.526 267.952 112.118 344 19.1144 344C-73.8888 344 -149.297 267.952 -149.297 174.124C-149.297 80.2962 -73.8888 4.24829 19.1144 4.24829C112.118 4.24829 187.526 80.2962 187.526 174.124Z" stroke="black" stroke-width="2"/>
<path d="M90.5603 94.3072C90.5603 99.6773 86.63 104.749 79.8123 108.536C73.0286 112.305 63.5893 114.667 53.1083 114.667C42.6272 114.667 33.1879 112.305 26.4042 108.536C19.5866 104.749 15.6562 99.6773 15.6562 94.3072C15.6562 88.9371 19.5866 83.8651 26.4042 80.078C33.1879 76.3097 42.6272 73.9478 53.1083 73.9478C63.5893 73.9478 73.0286 76.3097 79.8123 80.078C86.63 83.8651 90.5603 88.9371 90.5603 94.3072Z" stroke="black" stroke-width="2"/>
<path d="M5.18258 115.667C3.10985 114.621 0.903271 110.133 -0.503745 106.597C-1.17683 104.905 -2.55616 103.568 -4.30953 103.077L-4.94681 102.898C-8.20365 101.986 -9.65294 98.1455 -7.63476 95.4313C-5.96294 93.183 -8.19203 90.3725 -11.5357 87.562C-14.5957 84.99 -17.1889 83.3595 -7.35559 73.6231C-5.35779 71.645 -3.13471 69.853 -0.648868 68.5397C6.94708 64.5267 3.67138 70.3702 9.08351 67.8888C15.2135 65.0784 12.9844 65.6405 18.5572 60.5816C24.13 55.5228 24.13 57.7712 30.8173 57.7712C31.2282 57.7712 31.633 57.7579 32.0308 57.7329C38.9274 57.2995 45.6505 54.2029 52.551 53.8365C54.7801 54.0239 60.3529 55.0731 64.8111 57.7712C70.3838 61.1437 69.8266 57.7712 72.0557 57.7712C74.2848 57.7712 74.842 54.3986 79.8575 54.3986C86.0503 54.3986 92.0834 57.62 94.3006 63.4023C94.6723 64.3718 94.904 65.1671 94.904 65.6405C94.904 68.8569 96.2853 71.9184 98.6969 74.0468L102.495 77.3991C103.377 78.1775 104.18 79.0355 104.716 80.0824C106.318 83.2063 109.641 91.1221 114.966 107.235C121.653 120.725 113.294 115.667 108.279 120.163C103.263 124.66 97.6903 123.536 89.8885 125.784C82.0866 128.033 80.9721 126.908 69.8266 136.464C63.6965 142.085 59.2383 138.712 54.2228 141.523C49.2074 144.333 44.1919 141.523 30.8173 138.712C17.4426 135.902 20.7863 134.216 18.5572 130.843C16.3281 127.471 17.4426 122.974 15.2135 120.163C12.9844 117.353 8.52624 117.353 5.18258 115.667Z" stroke="black" stroke-width="2"/>
<path d="M55.8945 147.706C56.4518 146.769 58.0122 144.895 59.7955 144.895C62.0246 144.895 63.1391 147.144 66.4828 146.02C69.8264 144.895 71.4982 144.895 72.0555 144.895C72.6128 144.895 72.6128 142.647 73.7273 142.085C73.931 141.948 74.1263 141.813 74.3139 141.681C77.7828 139.228 81.1819 135.902 85.4301 135.902V135.902C88.7738 135.902 88.7738 134.778 91.0029 134.778C93.232 134.778 98.8047 129.719 101.034 129.157C103.263 128.595 103.263 128.033 107.164 127.471C111.065 126.909 103.263 134.778 113.294 127.471C123.325 120.163 124.997 121.288 123.882 115.667C122.768 110.046 123.882 112.856 119.981 107.235C116.08 101.614 115.523 95.4314 115.523 93.7451C115.523 92.0588 115.523 93.183 115.523 88.6863C115.523 84.1895 116.638 82.5033 114.408 79.6928C112.179 76.8823 113.851 75.7582 110.508 73.5098C109.377 72.7498 107.876 71.6956 106.364 70.6183C102.858 68.1195 99.8405 64.7605 98.8047 60.5817V60.5817C98.2475 58.3333 97.6902 56.6471 97.1329 56.085" stroke="black" stroke-width="2"/>
<path d="M-9.86377 68.4512C-8.3777 66.9523 -5.18266 63.9545 -4.29101 63.9545C-3.17646 63.9545 -0.390085 65.0786 1.28174 63.9545C2.95357 62.8303 7.41177 62.2682 7.96905 61.144V61.144C9.34364 58.3711 11.7528 56.1012 13.5527 53.5834C13.8787 53.1274 14.2455 52.6479 14.6564 52.1505C17.4427 48.778 15.2136 48.778 18.5573 47.6538C21.9009 46.5296 22.4582 45.4054 24.6873 46.5296C26.9164 47.6538 25.8019 48.2159 28.5882 49.34C31.3746 50.4642 28.5882 50.4642 33.6037 50.4642C38.6192 50.4642 38.6192 51.5884 41.4056 50.4642C50.8793 46.5296 51.4365 46.5296 53.1084 46.5296C53.3403 46.5296 53.6202 46.5859 53.9313 46.684C57.391 47.7739 60.3562 50.0842 63.7375 51.3971C64.8639 51.8345 65.7426 52.1505 65.9257 52.1505C66.483 52.1505 65.3684 54.961 67.0403 54.3989C67.7289 54.1673 68.7424 52.9326 69.716 51.5077C71.1327 49.4341 73.8402 48.5537 76.0826 49.6846V49.6846C77.0796 50.1874 78.2245 50.3139 79.3073 50.0409L82.0867 49.34" stroke="black" stroke-width="2"/>
<path d="M75.9566 199.98C91.783 193.188 99.7037 193.449 103.033 195.195C104.681 196.06 104.935 198.119 104.935 199.98C104.935 204.34 106.798 208.929 105.942 213.204C105.753 214.151 105.431 215.18 104.935 216.281C102.149 222.464 102.149 218.529 91.5603 228.647C84.1555 235.723 87.3803 234.276 94.3728 234.882C101.568 235.505 108.895 238.304 115.723 235.952C119.727 234.572 123.835 232.252 128.898 228.647C135.2 224.16 137.31 224.399 141.461 231.681C147.426 242.143 146.881 254.379 136.377 260.268C132.202 262.609 126.706 265.599 119.424 269.68C94.3467 283.732 104.935 278.111 83.7585 293.288C62.582 308.464 62.582 294.412 46.9783 293.288C31.3746 292.163 42.5201 287.667 46.9783 282.046C51.4365 276.425 61.4674 275.301 96.5758 264.621C131.684 253.941 93.7894 259.562 83.7585 255.627C73.7275 251.693 55.3374 243.261 42.5201 228.647C29.7027 214.033 49.7647 211.222 75.9566 199.98Z" stroke="black" stroke-width="2"/>
<path d="M36.9473 212.909C37.8761 211.222 40.1795 207.737 41.9627 207.288C44.1918 206.726 43.6346 207.288 48.0928 205.601C52.551 203.915 56.4519 201.105 60.9101 200.543C65.3683 199.981 72.6129 197.17 74.2847 196.046C75.9566 194.922 78.1857 192.673 80.4148 191.549C82.6439 190.425 84.3157 188.177 87.6593 188.177C91.003 188.177 93.2321 188.177 97.133 188.177C101.034 188.177 101.591 189.301 104.935 188.177C108.279 187.052 116.638 181.994 112.737 189.863C108.836 197.732 107.721 198.294 108.279 199.418V199.418C109.952 202.795 115.503 203.052 116.95 206.531C117.264 207.286 117.015 208.031 116.08 208.974C114.913 210.151 114.051 210.404 113.495 210.781C112.204 211.657 112.407 213.646 111.758 215.065C111.155 216.386 110.608 217.568 110.13 218.588C109.048 220.899 104.935 221.599 104.935 224.15V224.15C104.935 225.949 108.279 228.647 104.935 228.647H112.737V228.647C114.935 228.647 117.109 228.143 119.045 227.101C120.277 226.438 121.512 225.744 122.21 225.275C123.882 224.15 122.21 224.15 124.44 222.464C126.669 220.778 134.47 216.843 137.814 217.405C141.158 217.967 143.387 216.843 143.387 219.654C143.387 222.464 143.387 221.902 143.387 224.15C143.387 226.399 141.715 225.837 143.387 228.647C145.059 231.458 146.731 230.333 147.288 233.144C147.845 235.954 148.96 235.954 148.96 238.765C148.96 241.575 150.631 242.699 151.189 243.824C151.746 244.948 151.189 245.51 151.189 247.196C151.189 248.882 150.631 250.007 148.96 251.693C147.622 253.042 145.802 255.253 145.059 256.19" stroke="black" stroke-width="2"/>
<path d="M169.579 98.8039C171.527 97.4941 174.042 99.8088 175.803 101.97C177.359 103.879 178.668 106.023 180.616 107.531C181.642 108.325 182.839 109.07 184.068 109.484C187.412 110.608 190.198 109.484 191.87 112.856C193.542 116.229 196.328 119.601 196.328 122.974C196.328 126.346 196.328 125.784 196.328 130.843C196.328 135.902 198 137.026 198 140.399C198 143.771 198 144.895 198 148.83C198 152.765 198 152.765 198 157.824C198 162.882 198 163.444 198 168.503C198 173.562 198 173.562 198 178.621C198 183.68 198 189.863 194.099 192.673C190.978 194.922 186.483 199.231 185.183 200.542" stroke="black" stroke-width="2"/>
<path d="M175.709 112.856C177.938 114.168 182.619 117.016 183.511 117.915C184.625 119.039 185.183 119.039 186.297 121.85C187.412 124.66 187.412 124.66 187.412 127.471C187.412 130.281 185.74 129.157 187.412 132.529C189.084 135.902 189.641 134.216 189.641 138.15C189.641 142.085 189.641 142.647 189.641 144.333C189.641 145.682 186.669 147.519 185.183 148.268" stroke="black" stroke-width="2"/>
<path d="M-76.1797 309.026C-68.5636 312.961 -52.8856 321.167 -51.1023 322.516C-48.8732 324.203 26.359 356.242 81.5293 324.203C136.7 292.163 37.5045 324.203 34.7181 324.203C31.9318 324.203 15.7708 326.451 9.64074 326.451C6.76985 326.451 3.50425 325.552 0.805476 324.544C-2.07496 323.467 -4.42517 323.299 -7.27036 324.465V324.465C-12.2021 326.487 -7.26885 311.422 -2.0152 312.322C5.74121 313.649 24.9976 320.363 34.7181 317.458C49.7646 312.961 44.7491 303.405 31.3745 306.216C17.9999 309.026 4.06799 311.837 9.64074 309.026" stroke="black" stroke-width="2"/>
</svg>
