<svg width="178" height="178" viewBox="0 0 178 178" fill="none" xmlns="http://www.w3.org/2000/svg">
<path d="M177 89C177 137.601 137.601 177 89 177C40.3989 177 1 137.601 1 89C1 40.3989 40.3989 1 89 1C137.601 1 177 40.3989 177 89Z" fill="white" stroke="black" stroke-width="2"/>
<circle cx="88.608" cy="88.608" r="47.6167" fill="white" stroke="black" stroke-width="2"/>
<circle cx="88.9999" cy="88.9999" r="79.3745" stroke="black" stroke-width="2"/>
<path d="M113.614 38.3022L122.134 76.2575L122.31 77.0385H123.11H147.637L126.749 96.1028L126.294 96.5179L126.46 97.1108L134.622 126.283L114.357 112.867L113.746 112.462L113.177 112.922L79.4317 140.174L92.2493 101.974L92.4865 101.267L91.8767 100.838L58.0489 77.0385H99.8969H100.616L100.845 76.3566L113.614 38.3022Z" fill="white" stroke="black" stroke-width="2"/>
<path d="M73.7095 72.9252H94.7893C95.7847 72.9252 96.6723 72.2987 97.0058 71.3608L102.723 55.282" stroke="black" stroke-width="2"/>
<path d="M69.3965 170.159C107.077 175.225 124.36 169.742 149.771 147.418" stroke="black" stroke-width="2"/>
<path d="M49.0068 128.092L50.4644 129.565L44.1066 136.986L41.4475 134.299C41.1126 133.961 40.8624 133.603 40.697 133.224C40.5254 132.852 40.4391 132.474 40.4379 132.089C40.4302 131.698 40.5048 131.311 40.6619 130.927C40.8189 130.544 41.0523 130.171 41.362 129.81C41.8114 129.285 42.302 128.941 42.8339 128.778C43.3659 128.615 43.8772 128.668 44.3678 128.939L45.5598 124.61L47.175 126.242L45.9681 130.16L46.6477 130.846L49.0068 128.092ZM44.7441 131.224C44.3961 130.872 44.0957 130.701 43.843 130.71C43.5836 130.712 43.3143 130.877 43.035 131.203L42.7617 131.522C42.4824 131.848 42.3509 132.151 42.3674 132.432C42.3772 132.707 42.5562 133.02 42.9041 133.371L43.7511 134.227L45.5911 132.079L44.7441 131.224Z" fill="black"/>
<path d="M39.2883 115.248C39.5722 116.523 39.3553 117.586 38.6377 118.437C37.9181 119.278 36.7901 119.915 35.2538 120.348C33.7176 120.78 32.4557 120.816 31.4684 120.455C30.479 120.085 29.8424 119.262 29.5585 117.987C29.2746 116.711 29.4924 115.653 30.2121 114.811C30.9297 113.96 32.0566 113.319 33.5929 112.886C35.1292 112.454 36.392 112.423 37.3814 112.793C38.3687 113.154 39.0044 113.972 39.2883 115.248ZM37.6577 115.707C37.5279 115.124 37.2275 114.782 36.7566 114.682C36.2747 114.576 35.6519 114.63 34.8882 114.845L33.2576 115.304C32.5029 115.517 31.9398 115.796 31.5683 116.143C31.1857 116.483 31.0593 116.945 31.1891 117.528C31.3189 118.111 31.6248 118.455 32.1067 118.562C32.5776 118.662 33.1904 118.605 33.9451 118.393L35.5892 117.93C36.3438 117.717 36.9124 117.441 37.295 117.101C37.6666 116.754 37.7875 116.29 37.6577 115.707Z" fill="black"/>
<mask id="path-9-outside-1_344_61" maskUnits="userSpaceOnUse" x="22.0187" y="92.4806" width="15.879" height="15.2989" fill="black">
<rect fill="white" x="22.0187" y="92.4806" width="15.879" height="15.2989"/>
<path d="M34.6047 99.6701C34.6598 100.49 34.5728 101.214 34.3439 101.843C34.1149 102.473 33.7805 102.994 33.3407 103.408L31.9204 102.312C32.2871 101.923 32.5493 101.511 32.7071 101.076C32.8643 100.631 32.9282 100.189 32.8988 99.7518C32.865 99.2489 32.7278 98.877 32.4872 98.6361C32.2465 98.3953 31.917 98.2934 31.4987 98.3307C31.1547 98.3613 30.9013 98.4869 30.7384 98.7075C30.5749 98.9188 30.4719 99.2652 30.4295 99.7468L30.3306 100.781C30.2406 101.67 29.9624 102.332 29.496 102.767C29.0202 103.203 28.4245 103.452 27.7086 103.516C26.7697 103.6 26.0239 103.357 25.4713 102.788C24.9094 102.22 24.5913 101.381 24.5169 100.273C24.4662 99.519 24.5383 98.8521 24.7332 98.2727C24.9281 97.6932 25.2138 97.2134 25.5904 96.8333L26.9949 97.9027C26.7243 98.1891 26.5218 98.5162 26.3875 98.8842C26.2439 99.253 26.1872 99.6608 26.2172 100.108C26.2803 101.048 26.6977 101.484 27.4694 101.416C27.804 101.386 28.0482 101.261 28.2017 101.041C28.3547 100.812 28.4571 100.456 28.5088 99.974L28.6216 98.9382C28.7079 98.1342 28.9644 97.4978 29.3912 97.0288C29.818 96.5599 30.4171 96.2911 31.1888 96.2224C31.6443 96.1818 32.0726 96.2233 32.4737 96.3469C32.8655 96.4712 33.2161 96.6789 33.5256 96.9698C33.8257 97.2616 34.0705 97.6333 34.2598 98.0848C34.4485 98.5271 34.5634 99.0555 34.6047 99.6701Z"/>
</mask>
<path d="M34.6047 99.6701C34.6598 100.49 34.5728 101.214 34.3439 101.843C34.1149 102.473 33.7805 102.994 33.3407 103.408L31.9204 102.312C32.2871 101.923 32.5493 101.511 32.7071 101.076C32.8643 100.631 32.9282 100.189 32.8988 99.7518C32.865 99.2489 32.7278 98.877 32.4872 98.6361C32.2465 98.3953 31.917 98.2934 31.4987 98.3307C31.1547 98.3613 30.9013 98.4869 30.7384 98.7075C30.5749 98.9188 30.4719 99.2652 30.4295 99.7468L30.3306 100.781C30.2406 101.67 29.9624 102.332 29.496 102.767C29.0202 103.203 28.4245 103.452 27.7086 103.516C26.7697 103.6 26.0239 103.357 25.4713 102.788C24.9094 102.22 24.5913 101.381 24.5169 100.273C24.4662 99.519 24.5383 98.8521 24.7332 98.2727C24.9281 97.6932 25.2138 97.2134 25.5904 96.8333L26.9949 97.9027C26.7243 98.1891 26.5218 98.5162 26.3875 98.8842C26.2439 99.253 26.1872 99.6608 26.2172 100.108C26.2803 101.048 26.6977 101.484 27.4694 101.416C27.804 101.386 28.0482 101.261 28.2017 101.041C28.3547 100.812 28.4571 100.456 28.5088 99.974L28.6216 98.9382C28.7079 98.1342 28.9644 97.4978 29.3912 97.0288C29.818 96.5599 30.4171 96.2911 31.1888 96.2224C31.6443 96.1818 32.0726 96.2233 32.4737 96.3469C32.8655 96.4712 33.2161 96.6789 33.5256 96.9698C33.8257 97.2616 34.0705 97.6333 34.2598 98.0848C34.4485 98.5271 34.5634 99.0555 34.6047 99.6701Z" fill="white"/>
<path d="M34.3439 101.843L32.47 101.192L34.3439 101.843ZM33.3407 103.408L32.1023 105.006L33.4362 106.035L34.6898 104.856L33.3407 103.408ZM31.9204 102.312L30.4845 100.951L28.9524 102.575L30.682 103.91L31.9204 102.312ZM32.7071 101.076L34.582 101.724L34.5847 101.716L34.5875 101.709L32.7071 101.076ZM32.4872 98.6361L33.9125 97.2028L33.9125 97.2028L32.4872 98.6361ZM30.7384 98.7075L32.3056 99.9148L32.3198 99.8964L32.3337 99.8776L30.7384 98.7075ZM30.4295 99.7468L32.4169 99.8954L32.4176 99.8881L32.4183 99.8808L30.4295 99.7468ZM30.3306 100.781L32.317 100.941L32.3181 100.93L30.3306 100.781ZM29.496 102.767L30.8248 104.233L30.8316 104.227L30.8383 104.221L29.496 102.767ZM25.4713 102.788L26.9159 101.374L26.9098 101.368L26.9036 101.362L25.4713 102.788ZM24.7332 98.2727L22.8428 97.6689L22.8428 97.6689L24.7332 98.2727ZM25.5904 96.8333L26.8189 95.2279L25.4378 94.1763L24.1895 95.4364L25.5904 96.8333ZM26.9949 97.9027L28.4297 99.2646L29.9743 97.6303L28.2234 96.2972L26.9949 97.9027ZM26.3875 98.8842L28.2452 99.5781L28.2532 99.5577L28.2607 99.5372L26.3875 98.8842ZM28.2017 101.041L29.8284 102.168L29.841 102.15L29.8531 102.131L28.2017 101.041ZM28.5088 99.974L26.5241 99.7988L26.5237 99.8019L28.5088 99.974ZM28.6216 98.9382L30.6064 99.1134L30.6067 99.1103L28.6216 98.9382ZM29.3912 97.0288L27.93 95.6954L27.93 95.6954L29.3912 97.0288ZM32.4737 96.3469L33.1129 94.4356L33.1049 94.433L33.0969 94.4306L32.4737 96.3469ZM33.5256 96.9698L34.9307 95.5166L34.9191 95.5053L34.9074 95.4943L33.5256 96.9698ZM34.2598 98.0848L32.4168 98.8952L32.4216 98.9065L34.2598 98.0848ZM32.6126 99.8475C32.6531 100.451 32.5821 100.884 32.47 101.192L36.2177 102.494C36.5635 101.544 36.6664 100.528 36.5968 99.4927L32.6126 99.8475ZM32.47 101.192C32.3386 101.553 32.1713 101.792 31.9916 101.961L34.6898 104.856C35.3897 104.197 35.8912 103.392 36.2177 102.494L32.47 101.192ZM34.5792 101.81L33.1588 100.714L30.682 103.91L32.1023 105.006L34.5792 101.81ZM33.3563 103.673C33.8877 103.11 34.315 102.461 34.582 101.724L30.8323 100.427C30.7836 100.562 30.6865 100.737 30.4845 100.951L33.3563 103.673ZM34.5875 101.709C34.8304 101.021 34.9399 100.304 34.8909 99.5744L30.9066 99.9291C30.9164 100.075 30.8981 100.241 30.8268 100.443L34.5875 101.709ZM34.8909 99.5744C34.8396 98.811 34.6121 97.9031 33.9125 97.2028L31.0618 100.069C30.9548 99.9624 30.9099 99.8635 30.8963 99.8265C30.8848 99.7955 30.8993 99.8199 30.9066 99.9291L34.8909 99.5744ZM33.9125 97.2028C33.1748 96.4643 32.2247 96.2586 31.3647 96.3352L31.6327 100.326C31.6373 100.326 31.5596 100.333 31.4347 100.295C31.2997 100.253 31.167 100.175 31.0618 100.069L33.9125 97.2028ZM31.3647 96.3352C30.6116 96.4022 29.7457 96.7213 29.1431 97.5375L32.3337 99.8776C32.2135 100.04 32.0592 100.163 31.9038 100.24C31.7593 100.312 31.6545 100.324 31.6327 100.326L31.3647 96.3352ZM29.1713 97.5003C28.6395 98.1874 28.4931 99.0182 28.4406 99.6128L32.4183 99.8808C32.4245 99.8097 32.432 99.756 32.4388 99.7175C32.4421 99.6985 32.4451 99.6844 32.4473 99.6746C32.4496 99.6648 32.4509 99.6603 32.4509 99.6604C32.4509 99.6605 32.4491 99.6663 32.4451 99.677C32.4411 99.6876 32.4344 99.7042 32.4241 99.7257C32.404 99.7677 32.3672 99.8352 32.3056 99.9148L29.1713 97.5003ZM28.442 99.5982L28.3431 100.633L32.3181 100.93L32.4169 99.8954L28.442 99.5982ZM28.3442 100.621C28.3147 100.913 28.261 101.095 28.2173 101.2C28.1961 101.25 28.1783 101.28 28.1681 101.295C28.1629 101.302 28.1591 101.307 28.157 101.309C28.1549 101.312 28.1538 101.313 28.1537 101.313L30.8383 104.221C31.7952 103.328 32.1975 102.121 32.317 100.941L28.3442 100.621ZM28.1672 101.301C28.0641 101.395 27.906 101.491 27.5746 101.521L27.8426 105.512C28.9429 105.414 29.9764 105.01 30.8248 104.233L28.1672 101.301ZM27.5746 101.521C27.1116 101.562 26.9859 101.446 26.9159 101.374L24.0267 104.202C25.0619 105.268 26.4278 105.638 27.8426 105.512L27.5746 101.521ZM26.9036 101.362C26.7767 101.233 26.5635 100.908 26.509 100.096L22.5247 100.451C22.619 101.855 23.0422 103.206 24.039 104.214L26.9036 101.362ZM26.509 100.096C26.4718 99.5423 26.5316 99.1499 26.6236 98.8764L22.8428 97.6689C22.545 98.5544 22.4606 99.4956 22.5247 100.451L26.509 100.096ZM26.6236 98.8764C26.733 98.5511 26.8668 98.3559 26.9914 98.2302L24.1895 95.4364C23.5608 96.071 23.1231 96.8353 22.8428 97.6689L26.6236 98.8764ZM24.362 98.4387L25.7665 99.5081L28.2234 96.2972L26.8189 95.2279L24.362 98.4387ZM25.5602 96.5407C25.0972 97.0306 24.745 97.599 24.5143 98.2312L28.2607 99.5372C28.2985 99.4334 28.3513 99.3475 28.4297 99.2646L25.5602 96.5407ZM24.5298 98.1902C24.2635 98.8742 24.178 99.5846 24.2251 100.285L28.2093 99.9304C28.1963 99.737 28.2244 99.6317 28.2452 99.5781L24.5298 98.1902ZM24.2251 100.285C24.2716 100.978 24.4656 101.857 25.1236 102.544C25.8481 103.301 26.7961 103.483 27.6034 103.411L27.3353 99.4201C27.3406 99.4196 27.4358 99.4116 27.5817 99.4567C27.7401 99.5056 27.9013 99.6001 28.0316 99.7362C28.2722 99.9874 28.2259 100.178 28.2093 99.9304L24.2251 100.285ZM27.6034 103.411C28.3624 103.344 29.2381 103.012 29.8284 102.168L26.5751 99.9149C26.6966 99.7409 26.8583 99.6052 27.0277 99.5186C27.1853 99.438 27.3036 99.4229 27.3353 99.4201L27.6034 103.411ZM29.8531 102.131C30.2823 101.489 30.4303 100.739 30.4939 100.146L26.5237 99.8019C26.5067 99.9606 26.4862 100.049 26.4758 100.085C26.4712 100.101 26.4716 100.096 26.4809 100.075C26.49 100.054 26.5113 100.01 26.5503 99.9511L29.8531 102.131ZM30.4936 100.149L30.6064 99.1134L26.6369 98.763L26.5241 99.7988L30.4936 100.149ZM30.6067 99.1103C30.66 98.6141 30.7936 98.4269 30.8524 98.3623L27.93 95.6954C27.1352 96.5687 26.7559 97.6543 26.6365 98.7661L30.6067 99.1103ZM30.8524 98.3623C30.8563 98.358 30.9327 98.2526 31.3228 98.2179L31.0547 94.2269C29.9016 94.3296 28.7796 94.7618 27.93 95.6954L30.8524 98.3623ZM31.3228 98.2179C31.5431 98.1983 31.7126 98.2207 31.8505 98.2631L33.0969 94.4306C32.4326 94.226 31.7454 94.1654 31.0547 94.2269L31.3228 98.2179ZM31.8345 98.2581C31.9384 98.2911 32.0378 98.3458 32.1438 98.4454L34.9074 95.4943C34.3944 95.012 33.7925 94.6513 33.1129 94.4356L31.8345 98.2581ZM32.1205 98.4231C32.2049 98.5052 32.3125 98.6464 32.4168 98.8951L36.1027 97.2745C35.8284 96.6202 35.4466 96.0181 34.9307 95.5166L32.1205 98.4231ZM32.4216 98.9065C32.5033 99.0979 32.5824 99.3977 32.6126 99.8475L36.5968 99.4927C36.5445 98.7133 36.3936 97.9562 36.0979 97.2632L32.4216 98.9065Z" fill="black" mask="url(#path-9-outside-1_344_61)"/>
<path d="M26.8043 85.5056L27.0725 83.4511L28.3733 83.6509L28.386 83.5537C27.9846 83.3127 27.6672 83.0043 27.434 82.6286C27.2007 82.2529 27.1215 81.7782 27.1964 81.2044C27.2484 80.8064 27.3693 80.4568 27.5592 80.1556C27.7503 79.8451 28.0131 79.5976 28.3478 79.413C28.6836 79.2191 29.0952 79.0935 29.5826 79.0363C30.0712 78.9697 30.6384 78.9861 31.2842 79.0853C31.9299 79.1845 32.479 79.3397 32.9313 79.5508C33.3849 79.7526 33.7482 79.9972 34.0212 80.2846C34.2954 80.5628 34.4846 80.8798 34.5887 81.2356C34.694 81.5822 34.7207 81.9545 34.6687 82.3525C34.5938 82.9263 34.4009 83.3592 34.0899 83.6513C33.7696 83.9419 33.3812 84.1419 32.9247 84.2511L32.912 84.3483L36.9803 84.9733L36.7121 87.0279L26.8043 85.5056ZM32.9614 82.9964C33.0218 82.5337 32.93 82.1561 32.6859 81.8637C32.4325 81.5699 32.0567 81.3847 31.5586 81.3082L30.4516 81.1381C29.9534 81.0616 29.5497 81.127 29.2403 81.3343C28.9217 81.5403 28.7322 81.8746 28.6718 82.3373C28.6247 82.6983 28.6712 83.0264 28.8115 83.3217C28.9529 83.6078 29.2128 83.7799 29.591 83.838L31.6943 84.1612C32.0725 84.2193 32.3662 84.1322 32.5753 83.9C32.7856 83.6586 32.9143 83.3574 32.9614 82.9964Z" fill="black"/>
<path d="M37.8802 66.4142C37.7881 66.8335 37.6112 67.1402 37.3494 67.3342C37.0787 67.5256 36.7415 67.5855 36.3379 67.514L36.3229 67.5823C36.7511 67.8457 37.0395 68.2035 37.188 68.6556C37.3386 69.0986 37.3538 69.5936 37.2338 70.1405C37.0837 70.8243 36.7837 71.3225 36.3338 71.6354C35.877 71.9365 35.3221 71.9899 34.6691 71.7955C33.9445 71.5799 33.4668 71.1512 33.236 70.5095C33.0051 69.8678 33.0038 69.0274 33.2319 67.9881L33.481 66.8531L33.1322 66.7493C32.7207 66.6268 32.39 66.6353 32.1403 66.7746C31.8835 66.9022 31.7042 67.1984 31.6021 67.6633C31.5081 68.0918 31.5125 68.4622 31.6155 68.7745C31.7185 69.0868 31.8787 69.3772 32.0961 69.6459L30.8868 70.466C30.5453 70.1118 30.3043 69.6468 30.1638 69.0708C30.0165 68.4831 30.0298 67.7927 30.2039 66.9996C30.4161 66.0333 30.8003 65.3464 31.3567 64.939C31.9062 64.5198 32.6192 64.4406 33.4959 64.7015L36.5284 65.604L36.6995 64.8246L38.1353 65.2519L37.8802 66.4142ZM36.1003 68.9874C36.1783 68.6319 36.1594 68.3057 36.0434 68.009C35.9275 67.7123 35.7085 67.516 35.3865 67.4202L34.5545 67.1726L34.3174 68.2529C34.1353 69.0825 34.3171 69.5785 34.8628 69.7408L35.1311 69.8207C35.3727 69.8926 35.5771 69.8514 35.7443 69.6973C35.9116 69.5431 36.0302 69.3065 36.1003 68.9874Z" fill="black"/>
<path d="M44.1541 54.6177C43.9718 55.1571 43.7321 55.6064 43.4349 55.9655C43.1323 56.3117 42.7836 56.5631 42.3889 56.7196C41.9971 56.8673 41.5649 56.9179 41.0923 56.8712C40.6197 56.8245 40.1195 56.6715 39.5918 56.4121C39.0641 56.1528 38.6177 55.8406 38.2527 55.4756C37.8877 55.1106 37.6079 54.7102 37.4133 54.2743C37.2217 53.8296 37.1223 53.358 37.1149 52.8594C37.1022 52.348 37.1854 51.8269 37.3647 51.2964C37.6187 50.5448 37.9685 50.0156 38.414 49.7088C38.8542 49.3889 39.3534 49.227 39.9115 49.2229L40.1796 51.1178C39.8864 51.1181 39.6217 51.1787 39.3855 51.2997C39.1522 51.4119 38.9728 51.6537 38.8473 52.0251C38.695 52.476 38.7026 52.887 38.8702 53.2581C39.0324 53.6163 39.3272 53.9003 39.7543 54.1102L40.8098 54.629C41.237 54.8389 41.6165 54.8863 41.9485 54.771C42.2751 54.6428 42.5176 54.3444 42.6759 53.8758C42.8044 53.4956 42.8208 53.1582 42.7249 52.8637C42.6321 52.5603 42.4771 52.2676 42.2598 51.9855L43.566 50.8952C43.9597 51.3775 44.2225 51.9294 44.3544 52.5509C44.4808 53.1595 44.414 53.8485 44.1541 54.6177Z" fill="black"/>
<path d="M51.6669 44.9372C50.8384 45.8236 50.0109 46.2251 49.1845 46.1416C48.358 46.0581 47.6008 45.551 46.9128 44.6204C46.5632 44.1476 46.3039 43.6656 46.1349 43.1744C45.9666 42.6689 45.8874 42.1757 45.8971 41.6948C45.9077 41.1996 46.0096 40.7276 46.2029 40.2788C46.397 39.8158 46.6789 39.3865 47.0485 38.991C47.4181 38.5955 47.8022 38.3122 48.2008 38.1412C48.5938 37.9626 48.9866 37.8918 49.3792 37.9288C49.7718 37.9657 50.1582 38.1101 50.5384 38.362C50.9194 38.5995 51.2764 38.9434 51.6093 39.3937L51.9755 39.889L48.601 43.4996L48.6759 43.6009C48.9533 43.9762 49.2768 44.1744 49.6464 44.1957C50.0104 44.2095 50.3836 44.0118 50.7659 43.6027C51.0591 43.289 51.2637 42.9559 51.3797 42.6033C51.4901 42.2432 51.5413 41.8724 51.5334 41.4911L53.0222 41.6523C53.0363 42.1346 52.9462 42.6611 52.7518 43.232C52.5575 43.8028 52.1959 44.3712 51.6669 44.9372ZM47.9402 40.1741C47.6343 40.5014 47.4722 40.8765 47.4538 41.2994C47.4363 41.708 47.5662 42.0999 47.8436 42.4751L47.9102 42.5652L49.8986 40.4377L49.832 40.3477C49.5491 39.9649 49.2379 39.7602 48.8986 39.7334C48.5656 39.6999 48.2461 39.8468 47.9402 40.1741Z" fill="black"/>
<mask id="path-15-outside-2_344_61" maskUnits="userSpaceOnUse" x="77" y="21" width="22" height="12" fill="black">
<rect fill="white" x="77" y="21" width="22" height="12"/>
<path d="M82.674 30.16L81.218 29.194L82.814 27.094L80.42 26.282L80.966 24.672L83.304 25.526V23.048H85.096V25.526L87.434 24.672L87.98 26.282L85.586 27.094L87.182 29.194L85.726 30.16L84.2 28.074L82.674 30.16ZM91.0685 30.16L89.6125 29.194L91.2085 27.094L88.8145 26.282L89.3605 24.672L91.6985 25.526V23.048H93.4905V25.526L95.8285 24.672L96.3745 26.282L93.9805 27.094L95.5765 29.194L94.1205 30.16L92.5945 28.074L91.0685 30.16Z"/>
</mask>
<path d="M82.674 30.16L81.218 29.194L82.814 27.094L80.42 26.282L80.966 24.672L83.304 25.526V23.048H85.096V25.526L87.434 24.672L87.98 26.282L85.586 27.094L87.182 29.194L85.726 30.16L84.2 28.074L82.674 30.16ZM91.0685 30.16L89.6125 29.194L91.2085 27.094L88.8145 26.282L89.3605 24.672L91.6985 25.526V23.048H93.4905V25.526L95.8285 24.672L96.3745 26.282L93.9805 27.094L95.5765 29.194L94.1205 30.16L92.5945 28.074L91.0685 30.16Z" fill="white"/>
<path d="M82.674 30.16L81.5683 31.8266L83.1602 32.8827L84.2882 31.3408L82.674 30.16ZM81.218 29.194L79.6257 27.9838L78.3354 29.6816L80.1123 30.8606L81.218 29.194ZM82.814 27.094L84.4063 28.3042L86.0873 26.0923L83.4564 25.2L82.814 27.094ZM80.42 26.282L78.526 25.6397L77.8837 27.5336L79.7776 28.176L80.42 26.282ZM80.966 24.672L81.6522 22.7934L79.7294 22.0911L79.072 24.0297L80.966 24.672ZM83.304 25.526L82.6178 27.4046L85.304 28.3858V25.526H83.304ZM83.304 23.048V21.048H81.304V23.048H83.304ZM85.096 23.048H87.096V21.048H85.096V23.048ZM85.096 25.526H83.096V28.3858L85.7822 27.4046L85.096 25.526ZM87.434 24.672L89.328 24.0297L88.6706 22.0911L86.7478 22.7934L87.434 24.672ZM87.98 26.282L88.6224 28.176L90.5163 27.5336L89.874 25.6397L87.98 26.282ZM85.586 27.094L84.9436 25.2L82.3127 26.0923L83.9937 28.3042L85.586 27.094ZM87.182 29.194L88.2877 30.8606L90.0646 29.6816L88.7743 27.9838L87.182 29.194ZM85.726 30.16L84.1118 31.3408L85.2398 32.8827L86.8317 31.8266L85.726 30.16ZM84.2 28.074L85.8142 26.8932L84.2 24.6866L82.5858 26.8932L84.2 28.074ZM83.7797 28.4934L82.3237 27.5274L80.1123 30.8606L81.5683 31.8266L83.7797 28.4934ZM82.8103 30.4042L84.4063 28.3042L81.2217 25.8838L79.6257 27.9838L82.8103 30.4042ZM83.4564 25.2L81.0624 24.388L79.7776 28.176L82.1716 28.988L83.4564 25.2ZM82.314 26.9243L82.86 25.3143L79.072 24.0297L78.526 25.6397L82.314 26.9243ZM80.2798 26.5506L82.6178 27.4046L83.9902 23.6474L81.6522 22.7934L80.2798 26.5506ZM85.304 25.526V23.048H81.304V25.526H85.304ZM83.304 25.048H85.096V21.048H83.304V25.048ZM83.096 23.048V25.526H87.096V23.048H83.096ZM85.7822 27.4046L88.1202 26.5506L86.7478 22.7934L84.4098 23.6474L85.7822 27.4046ZM85.54 25.3143L86.086 26.9243L89.874 25.6397L89.328 24.0297L85.54 25.3143ZM87.3376 24.388L84.9436 25.2L86.2284 28.988L88.6224 28.176L87.3376 24.388ZM83.9937 28.3042L85.5897 30.4042L88.7743 27.9838L87.1783 25.8838L83.9937 28.3042ZM86.0763 27.5274L84.6203 28.4934L86.8317 31.8266L88.2877 30.8606L86.0763 27.5274ZM87.3402 28.9792L85.8142 26.8932L82.5858 29.2548L84.1118 31.3408L87.3402 28.9792ZM82.5858 26.8932L81.0598 28.9792L84.2882 31.3408L85.8142 29.2548L82.5858 26.8932ZM91.0685 30.16L89.9628 31.8266L91.5548 32.8827L92.6827 31.3408L91.0685 30.16ZM89.6125 29.194L88.0202 27.9838L86.7299 29.6816L88.5068 30.8606L89.6125 29.194ZM91.2085 27.094L92.8009 28.3042L94.4818 26.0923L91.8509 25.2L91.2085 27.094ZM88.8145 26.282L86.9205 25.6397L86.2782 27.5336L88.1721 28.176L88.8145 26.282ZM89.3605 24.672L90.0467 22.7934L88.1239 22.0911L87.4665 24.0297L89.3605 24.672ZM91.6985 25.526L91.0123 27.4046L93.6985 28.3858V25.526H91.6985ZM91.6985 23.048V21.048H89.6985V23.048H91.6985ZM93.4905 23.048H95.4905V21.048H93.4905V23.048ZM93.4905 25.526H91.4905V28.3858L94.1767 27.4046L93.4905 25.526ZM95.8285 24.672L97.7226 24.0297L97.0651 22.0911L95.1423 22.7934L95.8285 24.672ZM96.3745 26.282L97.0169 28.176L98.9109 27.5336L98.2686 25.6397L96.3745 26.282ZM93.9805 27.094L93.3381 25.2L90.7072 26.0923L92.3882 28.3042L93.9805 27.094ZM95.5765 29.194L96.6822 30.8606L98.4592 29.6816L97.1689 27.9838L95.5765 29.194ZM94.1205 30.16L92.5063 31.3408L93.6343 32.8827L95.2262 31.8266L94.1205 30.16ZM92.5945 28.074L94.2087 26.8932L92.5945 24.6866L90.9803 26.8932L92.5945 28.074ZM92.1742 28.4934L90.7182 27.5274L88.5068 30.8606L89.9628 31.8266L92.1742 28.4934ZM91.2049 30.4042L92.8009 28.3042L89.6162 25.8838L88.0202 27.9838L91.2049 30.4042ZM91.8509 25.2L89.4569 24.388L88.1721 28.176L90.5661 28.988L91.8509 25.2ZM90.7086 26.9243L91.2546 25.3143L87.4665 24.0297L86.9205 25.6397L90.7086 26.9243ZM88.6743 26.5506L91.0123 27.4046L92.3847 23.6474L90.0467 22.7934L88.6743 26.5506ZM93.6985 25.526V23.048H89.6985V25.526H93.6985ZM91.6985 25.048H93.4905V21.048H91.6985V25.048ZM91.4905 23.048V25.526H95.4905V23.048H91.4905ZM94.1767 27.4046L96.5147 26.5506L95.1423 22.7934L92.8043 23.6474L94.1767 27.4046ZM93.9345 25.3143L94.4805 26.9243L98.2686 25.6397L97.7226 24.0297L93.9345 25.3143ZM95.7321 24.388L93.3381 25.2L94.6229 28.988L97.0169 28.176L95.7321 24.388ZM92.3882 28.3042L93.9842 30.4042L97.1689 27.9838L95.5729 25.8838L92.3882 28.3042ZM94.4708 27.5274L93.0148 28.4934L95.2262 31.8266L96.6822 30.8606L94.4708 27.5274ZM95.7347 28.9792L94.2087 26.8932L90.9803 29.2548L92.5063 31.3408L95.7347 28.9792ZM90.9803 26.8932L89.4543 28.9792L92.6827 31.3408L94.2087 29.2548L90.9803 26.8932Z" fill="black" mask="url(#path-15-outside-2_344_61)"/>
</svg>
